<?xml version="1.0" encoding="UTF-8" standalone="no"?>
<!DOCTYPE svg  PUBLIC '-//W3C//DTD SVG 1.1//EN'  'http://www.w3.org/Graphics/SVG/1.1/DTD/svg11.dtd'>
<svg xmlns="http://www.w3.org/2000/svg">
<defs>
<font id="MiloOT-Light" horiz-adv-x="508">
<font-face underline-position="-50" font-weight="350" descent="-200" panose-1="2 11 5 4 2 1 1 1 1 2" units-per-em="1000" unicode-range="U+0020-25CA" bbox="-167 -250 1153 851" x-height="486" underline-thickness="40" font-family="MiloOT" ascent="800" cap-height="623"/>
<missing-glyph horiz-adv-x="1000"/>
<glyph glyph-name=".notdef" horiz-adv-x="1000"/>
<glyph glyph-name=".null" horiz-adv-x="0"/>
<glyph glyph-name=".null" horiz-adv-x="0"/>
<glyph glyph-name="nonmarkingreturn" horiz-adv-x="333"/>
<glyph glyph-name="space" horiz-adv-x="236" unicode=" "/>
<glyph glyph-name="exclam" horiz-adv-x="260" unicode="!" d="M109 160l-11 463h64l-11 -463h-42zM131 -8q-18 0 -30.5 12.5t-12.5 30.5t12.5 30t30.5 12q17 0 29.5 -12t12.5 -30t-12.5 -30.5t-29.5 -12.5z"/>
<glyph glyph-name="quotedbl" horiz-adv-x="300" unicode='&quot;' d="M191 466l-8 214h64l-16 -214h-40zM69 466l-16 214h64l-8 -214h-40z"/>
<glyph glyph-name="numbersign" horiz-adv-x="485" unicode="#" d="M293 194l19 127h-118l-19 -127h118zM307 0h-43l23 152h-118l-23 -152h-43l23 152h-101l6 42h101l19 127h-100l6 42h101l20 134h43l-20 -134h118l20 134h43l-20 -134h97l-6 -42h-98l-19 -127h97l-6 -42h-97z"/>
<glyph glyph-name="dollar" horiz-adv-x="447" unicode="$" d="M187 -101v93q-80 3 -129 25v49q73 -30 137 -30q63 0 102.5 28.5t39.5 84.5q0 27 -10.5 47.5t-34.5 38t-42 27t-55 25.5q-32 15 -51.5 26t-43 30t-34.5 45.5t-11 60.5q0 58 37.5 96.5t103.5 45.5v81h45v-79q58 -3 114 -25v-49q-54 28 -125 28q-56 0 -88.5 -26t-32.5 -73 q0 -22 9 -39.5t29.5 -32.5t35.5 -23t44 -22q34 -16 50 -24t42.5 -25.5t39 -33.5t23 -41.5t10.5 -56.5q0 -63 -44 -106.5t-116 -50.5v-94h-45z"/>
<glyph glyph-name="percent" horiz-adv-x="806" unicode="%" d="M172 -23l420 666h48l-421 -666h-47zM619 31q50 0 76.5 38t26.5 90q0 50 -26.5 88.5t-76.5 38.5q-52 0 -79 -37.5t-27 -89.5q0 -50 27.5 -89t78.5 -39zM619 -8q-71 0 -113.5 48.5t-42.5 118.5t42.5 118t113.5 48q70 0 111.5 -48t41.5 -118t-41.5 -118.5t-111.5 -48.5z M190 336q50 0 76.5 38t26.5 90q0 51 -26.5 89t-76.5 38q-51 0 -78.5 -38t-27.5 -89q0 -50 28 -89t78 -39zM190 297q-71 0 -113.5 49t-42.5 118q0 70 42.5 118.5t113.5 48.5q70 0 111.5 -48.5t41.5 -117.5q0 -71 -41.5 -119.5t-111.5 -48.5z"/>
<glyph glyph-name="ampersand" horiz-adv-x="601" unicode="&amp;" d="M147 493q0 -30 16.5 -59t62.5 -78q128 70 128 145q0 36 -28.5 62.5t-71.5 26.5q-46 0 -76.5 -28t-30.5 -69zM251 37q91 1 153 63l-193 203q-112 -63 -112 -146q0 -51 41 -85.5t111 -34.5zM250 -8q-93 0 -149 47t-56 117q0 54 33 97t105 81q-50 54 -68.5 85.5t-18.5 71.5 q0 60 44.5 100t114.5 40q62 0 105.5 -37t43.5 -92q0 -50 -35 -89t-116 -86l181 -191q43 63 61 156l48 -8q-21 -107 -78 -182q63 -65 97 -65q19 0 30 5v-42q-18 -8 -40 -8q-30 0 -56.5 19t-61.5 56q-77 -75 -184 -75z"/>
<glyph glyph-name="quotesingle" horiz-adv-x="176" unicode="&apos;" d="M68 466l-13 214h66l-13 -214h-40z"/>
<glyph glyph-name="parenleft" horiz-adv-x="302" unicode="(" d="M242 -131q-88 77 -134.5 181.5t-46.5 212.5q0 236 182 417h53q-181 -187 -181 -418q0 -121 52.5 -223t128.5 -170h-54z"/>
<glyph glyph-name="parenright" horiz-adv-x="302" unicode=")" d="M59 -131h-54q76 68 128.5 170t52.5 223q0 231 -181 418h53q182 -181 182 -417q0 -108 -46.5 -212.5t-134.5 -181.5z"/>
<glyph glyph-name="asterisk" horiz-adv-x="435" unicode="*" d="M133 355l-34 25l87 117l-139 44l12 40l135 -46v145h44v-146l135 47l12 -40l-139 -44l87 -117l-34 -25l-83 115z"/>
<glyph glyph-name="plus" horiz-adv-x="572" unicode="+" d="M43 232v44h219v210h49v-210h218v-44h-218v-232h-49v232h-219z"/>
<glyph glyph-name="comma" horiz-adv-x="227" unicode="," d="M76 -129l-28 22q48 54 48 125q0 32 -6 53h58q5 -23 5 -46q0 -41 -22 -82.5t-55 -71.5z"/>
<glyph glyph-name="hyphen" horiz-adv-x="304" unicode="-" d="M58 266v45h189v-45h-189z"/>
<glyph glyph-name="period" horiz-adv-x="207" unicode="." d="M104 -8q-18 0 -30.5 12.5t-12.5 30.5t12.5 30t30.5 12q17 0 29.5 -12t12.5 -30t-12.5 -30.5t-29.5 -12.5z"/>
<glyph glyph-name="slash" horiz-adv-x="403" unicode="/" d="M34 -103l280 783h50l-281 -783h-49z"/>
<glyph glyph-name="zero" horiz-adv-x="571" unicode="0" d="M287 37q85 0 128.5 62t43.5 144q0 81 -43.5 143.5t-128.5 62.5t-130 -63t-45 -144t45 -143t130 -62zM287 -8q-107 0 -168 70t-61 180q0 104 62 178t167 74q106 0 166 -71t60 -180q0 -103 -61 -177t-165 -74z"/>
<glyph glyph-name="one" horiz-adv-x="332" unicode="1" d="M171 0v428q-68 -35 -136 -47v45q31 5 75.5 22.5t71.5 37.5h42v-486h-53z"/>
<glyph glyph-name="two" horiz-adv-x="449" unicode="2" d="M47 0v40q10 7 53.5 37.5t63 45.5t55 46.5t53 54.5t32 55t14.5 63q0 48 -30.5 78t-93.5 30q-65 0 -129 -36v45q65 35 136 35q82 0 127 -41.5t45 -109.5q0 -46 -22 -89t-67 -84.5t-76 -65t-87 -61.5h279v-43h-353z"/>
<glyph glyph-name="three" horiz-adv-x="432" unicode="3" d="M163 -141q-68 0 -127 23v46q63 -24 121 -24q71 0 116 32t45 92q0 77 -52.5 106.5t-148.5 29.5v42q82 2 134 32.5t52 98.5q0 52 -32.5 82.5t-93.5 30.5q-73 0 -120 -20v45q53 19 125 19q82 0 128.5 -42t46.5 -112q0 -55 -32 -93t-88 -56v-1q67 -13 102 -55t35 -104 q0 -78 -57.5 -125t-153.5 -47z"/>
<glyph glyph-name="four" horiz-adv-x="536" unicode="4" d="M341 413l-247 -370h248zM342 -132v132h-308v35l303 451h56v-443h98v-43h-98v-132h-51z"/>
<glyph glyph-name="five" horiz-adv-x="454" unicode="5" d="M173 -141q-70 0 -109 16v46q46 -17 104 -17q81 0 128.5 41t47.5 116q0 67 -40 104t-113 37q-55 0 -105 -13l11 297h271v-45h-223l-8 -199q30 6 58 6q96 0 150 -49.5t54 -133.5q0 -100 -63.5 -153t-162.5 -53z"/>
<glyph glyph-name="six" horiz-adv-x="512" unicode="6" d="M268 37q64 0 99.5 45.5t35.5 116.5q0 69 -34.5 112.5t-99.5 43.5q-83 0 -153 -55q-2 -24 -2 -35q0 -106 39.5 -167t114.5 -61zM272 -8q-105 0 -158 76t-53 216q0 154 73 250.5t193 96.5q55 0 98 -13v-48q-43 16 -95 16q-90 0 -146.5 -66.5t-65.5 -176.5q25 22 69.5 39 t87.5 17q86 0 134 -53.5t48 -145.5q0 -88 -50.5 -148t-134.5 -60z"/>
<glyph glyph-name="seven" horiz-adv-x="417" unicode="7" d="M104 -132q28 140 89 297t137 275h-302v46h359v-39q-87 -132 -147.5 -297t-80.5 -282h-55z"/>
<glyph glyph-name="eight" horiz-adv-x="496" unicode="8" d="M126 490q0 -26 9 -46t30.5 -37.5t38.5 -27.5t50 -27q114 55 114 137q0 42 -35 69.5t-86 27.5t-86 -26.5t-35 -69.5zM252 38q55 0 91 31.5t36 85.5q0 49 -37 85t-100 67q-60 -30 -93.5 -64.5t-33.5 -88.5q0 -51 40.5 -83.5t96.5 -32.5zM250 -8q-84 0 -135.5 47.5 t-51.5 112.5q0 63 37 104t102 73q-32 18 -50.5 30.5t-39 31.5t-30 43t-9.5 55q0 59 51 100.5t121 41.5q79 0 126.5 -40.5t47.5 -99.5t-34 -95t-92 -65q34 -17 53.5 -30t42.5 -34t33.5 -49t10.5 -64q0 -74 -53.5 -118t-129.5 -44z"/>
<glyph glyph-name="nine" horiz-adv-x="512" unicode="9" d="M246 134q87 0 150 53q2 24 2 32q0 230 -152 230q-65 0 -101 -44t-36 -118q0 -69 36.5 -111t100.5 -42zM189 -141q-62 0 -102 15v47q46 -17 99 -17q91 0 145.5 64t62.5 177q-26 -24 -70 -39.5t-85 -15.5q-84 0 -134 52t-50 144q0 87 51 147.5t136 60.5q209 0 209 -294 q0 -155 -70.5 -248t-191.5 -93z"/>
<glyph glyph-name="colon" horiz-adv-x="232" unicode=":" d="M116 -8q-18 0 -30.5 12.5t-12.5 30.5t12.5 30t30.5 12q17 0 29.5 -12t12.5 -30t-12.5 -30.5t-29.5 -12.5zM116 408q-18 0 -30.5 12.5t-12.5 30.5t12.5 30t30.5 12q17 0 29.5 -12t12.5 -30t-12.5 -30.5t-29.5 -12.5z"/>
<glyph glyph-name="semicolon" horiz-adv-x="233" unicode=";" d="M118 408q-18 0 -30.5 12.5t-12.5 30.5t12.5 30t30.5 12q17 0 29.5 -12t12.5 -30t-12.5 -30.5t-29.5 -12.5zM73 -129l-28 22q48 54 48 125q0 32 -6 53h58q5 -23 5 -46q0 -41 -22 -82.5t-55 -71.5z"/>
<glyph glyph-name="less" horiz-adv-x="360" unicode="&lt;" d="M280 29l-245 214l246 216l31 -32l-207 -182l206 -181z"/>
<glyph glyph-name="equal" horiz-adv-x="456" unicode="=" d="M35 323v45h385v-45h-385zM35 165v45h385v-45h-385z"/>
<glyph glyph-name="greater" horiz-adv-x="360" unicode="&gt;" d="M79 459l245 -214l-246 -216l-31 32l207 182l-206 181z"/>
<glyph glyph-name="question" horiz-adv-x="398" unicode="?" d="M155 -8q-18 0 -30.5 12.5t-12.5 30.5t12.5 30t30.5 12q17 0 29.5 -12t12.5 -30t-12.5 -30.5t-29.5 -12.5zM128 161q-7 28 -7 50q0 39 17.5 70t42 51.5t49 40.5t42 46.5t17.5 59.5q0 50 -35.5 78.5t-97.5 28.5q-50 0 -97 -19v46q52 18 104 18q83 0 131.5 -41.5 t48.5 -105.5q0 -42 -18 -74.5t-43.5 -53.5t-50.5 -40.5t-43 -47t-18 -62.5q0 -17 5 -45h-47z"/>
<glyph glyph-name="at" horiz-adv-x="720" unicode="@" d="M315 142q29 0 58 22t46 51l35 217q-19 6 -46 6q-63 0 -107 -61t-44 -155q0 -40 16 -60t42 -20zM344 -54q-146 0 -227 86t-81 233q0 158 99.5 262t248.5 104q143 0 225.5 -85.5t82.5 -196.5q0 -106 -47.5 -177t-131.5 -71q-39 0 -61 20.5t-26 51.5q-20 -29 -53 -50.5 t-69 -21.5q-45 0 -72.5 32.5t-27.5 88.5q0 105 58.5 181.5t151.5 76.5q48 0 95 -15l-37 -230q-3 -18 -3 -35q0 -60 52 -60q54 0 91 54.5t37 149.5q0 113 -76.5 180t-187.5 67q-126 0 -214.5 -91t-88.5 -233q0 -136 71 -208.5t197 -72.5q84 0 157 29v-41q-62 -28 -163 -28z "/>
<glyph glyph-name="A" horiz-adv-x="557" unicode="A" d="M279 575l-124 -353h244zM23 0l226 623h65l220 -623h-59l-60 176h-276l-61 -176h-55z"/>
<glyph glyph-name="B" horiz-adv-x="538" unicode="B" d="M148 577v-228h123q64 0 97.5 31t33.5 87q0 52 -32.5 81t-97.5 29h-124zM148 306v-260h127q69 0 105.5 34t36.5 96q0 130 -143 130h-126zM94 0v623h181q88 0 134.5 -40.5t46.5 -113.5q0 -55 -30.5 -91.5t-76.5 -46.5v-2q56 -10 90.5 -48.5t34.5 -103.5q0 -78 -51 -127.5 t-141 -49.5h-188z"/>
<glyph glyph-name="C" horiz-adv-x="530" unicode="C" d="M337 -8q-130 0 -203.5 84t-73.5 227q0 144 72 236t205 92q81 0 136 -25v-50q-56 28 -134 28q-109 0 -166 -76t-57 -205q0 -121 60 -192.5t169 -71.5q82 0 141 31v-50q-62 -28 -149 -28z"/>
<glyph glyph-name="D" horiz-adv-x="608" unicode="D" d="M148 578v-532h112q65 0 112 22t72 61t36.5 83.5t11.5 98.5t-11 98.5t-35.5 84t-71 62t-111.5 22.5h-115zM94 0v623h177q72 0 127 -25.5t87 -69.5t47.5 -98.5t15.5 -118.5q0 -61 -15.5 -114.5t-47 -99t-87 -71.5t-129.5 -26h-175z"/>
<glyph glyph-name="E" horiz-adv-x="469" unicode="E" d="M94 0v623h314v-46h-260v-217h223v-45h-223v-269h260v-46h-314z"/>
<glyph glyph-name="F" horiz-adv-x="460" unicode="F" d="M94 0v623h326v-46h-272v-217h246v-45h-246v-315h-54z"/>
<glyph glyph-name="G" horiz-adv-x="599" unicode="G" d="M346 -8q-132 0 -209 80.5t-77 230.5q0 145 75 236.5t216 91.5q81 0 137 -28v-48q-57 30 -134 30q-119 0 -178.5 -77t-59.5 -205q0 -129 62.5 -197t172.5 -68q65 0 116 19v204h-117v44h168v-280q-82 -33 -172 -33z"/>
<glyph glyph-name="H" horiz-adv-x="636" unicode="H" d="M94 0v623h54v-274h341v274h53v-623h-53v305h-341v-305h-54z"/>
<glyph glyph-name="I" horiz-adv-x="247" unicode="I" d="M96 0v623h54v-623h-54z"/>
<glyph glyph-name="J" horiz-adv-x="248" unicode="J" d="M20 -151q-34 0 -54 7v46q21 -7 39 -7q49 0 71 22t22 69v637h53v-643q0 -67 -35.5 -99t-95.5 -32z"/>
<glyph glyph-name="K" horiz-adv-x="520" unicode="K" d="M476 -4q-51 0 -100 57l-228 264v-317h-54v623h54v-300l272 300h63l-274 -300l215 -247q30 -35 62 -35q9 0 14 1v-44q-16 -2 -24 -2z"/>
<glyph glyph-name="L" horiz-adv-x="429" unicode="L" d="M94 0v623h54v-577h251v-46h-305z"/>
<glyph glyph-name="M" horiz-adv-x="777" unicode="M" d="M67 0l83 623h73l167 -564l163 564h74l83 -623h-51l-74 558l-163 -558h-67l-165 561l-72 -561h-51z"/>
<glyph glyph-name="N" horiz-adv-x="634" unicode="N" d="M95 0v623h60l333 -546v545h51v-622h-62l-331 541v-541h-51z"/>
<glyph glyph-name="O" horiz-adv-x="654" unicode="O" d="M328 38q105 0 157.5 75.5t52.5 198.5q0 124 -52 198.5t-158 74.5t-158.5 -75.5t-52.5 -198.5q0 -125 52 -199t159 -74zM328 -8q-136 0 -202 88t-66 231q0 87 26 157t88.5 116.5t153.5 46.5q135 0 201 -88.5t66 -230.5q0 -136 -67 -228t-200 -92z"/>
<glyph glyph-name="P" horiz-adv-x="495" unicode="P" d="M148 578v-276h121q63 0 96.5 38.5t33.5 100.5t-33.5 99.5t-97.5 37.5h-120zM94 0v623h185q81 0 128.5 -50t47.5 -132q0 -77 -47 -129t-128 -52h-132v-260h-54z"/>
<glyph glyph-name="Q" horiz-adv-x="654" unicode="Q" d="M328 38q105 0 157.5 75.5t52.5 198.5q0 124 -52 198.5t-158 74.5t-158.5 -75.5t-52.5 -198.5q0 -125 52 -199t159 -74zM460 -169q-61 0 -100.5 42t-40.5 120q-132 3 -195.5 90.5t-63.5 227.5q0 87 26 157t88.5 116.5t153.5 46.5q135 0 201 -88.5t66 -230.5 q0 -124 -56.5 -213t-168.5 -104q3 -120 100 -120q46 0 76 13v-43q-37 -14 -86 -14z"/>
<glyph glyph-name="R" horiz-adv-x="545" unicode="R" d="M148 579v-244h115q64 0 99.5 34.5t35.5 87.5q0 122 -134 122h-116zM493 -4q-59 0 -94 54l-159 243h-92v-293h-54v623h181q82 0 130 -43.5t48 -122.5q0 -60 -40.5 -105.5t-115.5 -55.5l147 -220q22 -35 58 -35q4 0 18 2v-45q-16 -2 -27 -2z"/>
<glyph glyph-name="S" horiz-adv-x="459" unicode="S" d="M215 -8q-92 0 -160 29v49q70 -32 153 -32q63 0 102.5 30.5t39.5 90.5q0 53 -33 82.5t-119 68.5q-32 15 -50.5 26t-41.5 30.5t-33.5 47t-10.5 63.5q0 73 49.5 113.5t132.5 40.5q79 0 138 -27v-48q-58 29 -136 29q-61 0 -96 -28.5t-35 -79.5q0 -47 28 -71.5t101 -57.5 q31 -14 46 -21.5t41.5 -25t39.5 -34.5t24 -45t11 -61q0 -74 -52.5 -121.5t-138.5 -47.5z"/>
<glyph glyph-name="T" horiz-adv-x="434" unicode="T" d="M184 0v577h-176v46h418v-46h-189v-577h-53z"/>
<glyph glyph-name="U" horiz-adv-x="613" unicode="U" d="M307 -8q-98 0 -159 56.5t-61 163.5v411h54v-403q0 -88 42.5 -135t123.5 -47t124 47t43 135v403h52v-411q0 -106 -60.5 -163t-158.5 -57z"/>
<glyph glyph-name="V" horiz-adv-x="538" unicode="V" d="M238 0l-219 623h59l191 -561l196 561h54l-222 -623h-59z"/>
<glyph glyph-name="W" horiz-adv-x="765" unicode="W" d="M509 0l-125 448l-129 -448h-62l-168 623h56l147 -552l133 459l-26 93h55l151 -552l149 552h51l-171 -623h-61z"/>
<glyph glyph-name="X" horiz-adv-x="513" unicode="X" d="M22 0l201 329l-186 293h60l158 -252l150 252h58l-182 -293l210 -329h-60l-181 287l-173 -287h-55z"/>
<glyph glyph-name="Y" horiz-adv-x="473" unicode="Y" d="M209 0v246l-200 376h60l170 -323l168 323h57l-201 -376v-246h-54z"/>
<glyph glyph-name="Z" horiz-adv-x="461" unicode="Z" d="M39 0v47l321 530h-309v46h368v-49l-319 -528h327v-46h-388z"/>
<glyph glyph-name="bracketleft" horiz-adv-x="298" unicode="[" d="M86 -111v791h185v-42h-134v-707h134v-42h-185z"/>
<glyph glyph-name="backslash" horiz-adv-x="401" unicode="\" d="M88 680l280 -783h-49l-281 783h50z"/>
<glyph glyph-name="bracketright" horiz-adv-x="298" unicode="]" d="M212 680v-791h-185v42h134v707h-134v42h185z"/>
<glyph glyph-name="asciicircum" horiz-adv-x="567" unicode="^" d="M59 244l205 379h39l205 -379h-48l-176 326l-177 -326h-48z"/>
<glyph glyph-name="underscore" horiz-adv-x="463" unicode="_" d="M-2 -122v44h467v-44h-467z"/>
<glyph glyph-name="grave" horiz-adv-x="500" unicode="`" d="M232 556l-121 119h75l94 -119h-48z"/>
<glyph glyph-name="a" horiz-adv-x="447" unicode="a" d="M199 36q67 0 112 45v151q-24 2 -54 2q-78 0 -120 -26.5t-42 -77.5q0 -43 28 -68.5t76 -25.5zM190 -8q-69 0 -109 37t-40 96q0 70 55.5 109t155.5 39q25 0 59 -2v70q0 58 -27 83t-88 25q-60 0 -116 -30v47q60 28 125 28q158 0 158 -137v-272q0 -49 42 -49q7 0 19 2v-40 q-20 -6 -38 -6q-55 0 -69 53q-19 -22 -54.5 -37.5t-72.5 -15.5z"/>
<glyph glyph-name="b" horiz-adv-x="502" unicode="b" d="M235 37q83 0 126 59t43 146q0 92 -37 148.5t-120 56.5q-64 0 -111 -40v-354q39 -16 99 -16zM233 -8q-79 0 -149 31v657h52v-234q17 18 49.5 33t71.5 15q102 0 152 -69t50 -181q0 -110 -61 -181t-165 -71z"/>
<glyph glyph-name="c" horiz-adv-x="412" unicode="c" d="M258 -8q-98 0 -156.5 65t-58.5 175q0 113 53.5 187.5t155.5 74.5q72 0 118 -26v-45q-49 27 -113 27q-81 0 -121 -58t-40 -160q0 -95 46 -145.5t123 -50.5q69 0 115 26v-44q-49 -26 -122 -26z"/>
<glyph glyph-name="d" horiz-adv-x="502" unicode="d" d="M255 38q66 0 111 40v349q-44 22 -97 22q-82 0 -126.5 -56t-44.5 -150q0 -91 37.5 -148t119.5 -57zM245 -8q-97 0 -149.5 65.5t-52.5 183.5q0 109 60 181t161 72q64 0 102 -23v209h52v-680h-52v39q-15 -17 -47.5 -32t-73.5 -15z"/>
<glyph glyph-name="e" horiz-adv-x="466" unicode="e" d="M251 450q-55 0 -98 -35t-54 -119h274v5q0 62 -32.5 105.5t-89.5 43.5zM267 -8q-109 0 -166.5 67t-57.5 182q0 114 56.5 183.5t152.5 69.5q60 0 101 -32t57 -76.5t16 -96.5q0 -21 -1 -34h-329v-12q0 -92 43 -149.5t129 -57.5q71 0 131 30v-46q-56 -28 -132 -28z"/>
<glyph glyph-name="f" horiz-adv-x="290" unicode="f" d="M24 444v42h78v64q0 138 134 138q31 0 52 -7v-45q-21 7 -43 7q-47 0 -69 -22t-22 -73v-62h117v-42h-117v-444h-52v444h-78z"/>
<glyph glyph-name="g" horiz-adv-x="475" unicode="g" d="M223 -145q151 0 151 101q0 38 -29.5 57t-98.5 22l-80 3q-35 -13 -60.5 -37t-25.5 -58q0 -43 39.5 -65.5t103.5 -22.5zM226 209q58 0 89.5 35t31.5 85t-31.5 86t-89.5 36q-57 0 -89 -36t-32 -86t32.5 -85t88.5 -35zM226 166q-30 0 -58 9q-35 -18 -35 -48q0 -41 49 -44 l86 -4q159 -7 159 -122q0 -71 -56.5 -108t-150.5 -37q-84 0 -138 32.5t-54 94.5q0 38 28.5 68t65.5 45q-37 18 -37 65q0 24 14.5 44t34.5 29q-81 47 -81 138q0 71 48.5 118.5t124.5 47.5q28 0 55 -8h163v-44h-90q46 -48 46 -112q0 -69 -48 -116.5t-126 -47.5z"/>
<glyph glyph-name="h" d="M84 0v680h52v-233q61 47 136 47q157 0 157 -173v-321h-52v312q0 67 -26.5 102t-92.5 35q-61 0 -122 -40v-409h-52z" unicode="h"/>
<glyph glyph-name="i" horiz-adv-x="229" unicode="i" d="M88 0v486h52v-486h-52zM114 596q-15 0 -26 11.5t-11 27.5t11 27.5t26 11.5q16 0 27 -11.5t11 -27.5t-11 -27.5t-27 -11.5z"/>
<glyph glyph-name="j" horiz-adv-x="234" unicode="j" d="M125 596q-15 0 -26 11.5t-11 27.5t11 27.5t26 11.5t26.5 -11.5t11.5 -27.5t-11.5 -27.5t-26.5 -11.5zM19 -188q-23 0 -45 6v45q20 -6 41 -6q42 0 63 21t21 70v538h52v-539q0 -70 -32.5 -102.5t-99.5 -32.5z"/>
<glyph glyph-name="k" horiz-adv-x="436" unicode="k" d="M84 0v680h52v-411l208 217h64l-211 -217l156 -188q19 -22 32 -30.5t35 -8.5v-43q-5 -1 -15 -1q-51 0 -96 56l-173 210v-264h-52z"/>
<glyph glyph-name="l" horiz-adv-x="220" unicode="l" d="M84 0v680h52v-680h-52z"/>
<glyph glyph-name="m" horiz-adv-x="767" unicode="m" d="M84 0v486h52v-38q58 46 136 46q72 0 110 -48q71 48 149 48q85 0 120.5 -45.5t35.5 -127.5v-321h-52v312q0 66 -24.5 101.5t-92.5 35.5q-62 0 -120 -34q15 -33 15 -82v-333h-52v319q0 68 -26.5 99t-81.5 31t-117 -40v-409h-52z"/>
<glyph glyph-name="n" d="M84 0v486h52v-39q61 47 136 47q157 0 157 -173v-321h-52v312q0 67 -26.5 102t-92.5 35q-61 0 -122 -40v-409h-52z" unicode="n"/>
<glyph glyph-name="o" horiz-adv-x="494" unicode="o" d="M247 35q44 0 75 19t46.5 51.5t22 65.5t6.5 71q0 54 -11 97t-46.5 77t-93.5 34q-43 0 -74 -19t-46.5 -51.5t-22 -66t-6.5 -71.5q0 -30 3.5 -57.5t14 -55.5t27 -48t43.5 -33t62 -13zM246 -8q-102 0 -152.5 69t-50.5 181q0 107 51.5 179.5t152.5 72.5q102 0 152.5 -69.5 t50.5 -182.5q0 -106 -52 -178t-152 -72z"/>
<glyph glyph-name="p" horiz-adv-x="502" unicode="p" d="M234 37q83 0 126.5 57.5t43.5 147.5q0 206 -156 206q-66 0 -112 -41v-352q43 -18 98 -18zM84 -180v666h52v-40q16 18 49 33t72 15q101 0 151.5 -65.5t50.5 -184.5q0 -110 -60 -181t-161 -71q-58 0 -102 20v-192h-52z"/>
<glyph glyph-name="q" horiz-adv-x="502" unicode="q" d="M255 38q61 0 111 42v353q-48 16 -98 16q-82 0 -126 -57.5t-44 -148.5t37.5 -148t119.5 -57zM366 -180v219q-17 -18 -49.5 -32.5t-71.5 -14.5q-99 0 -150.5 67t-51.5 182q0 110 61 181.5t166 71.5q82 0 148 -32v-642h-52z"/>
<glyph glyph-name="r" horiz-adv-x="319" unicode="r" d="M83 0v486h52v-51q48 59 120 59q21 0 44 -7v-49q-32 8 -49 8q-67 0 -115 -54v-392h-52z"/>
<glyph glyph-name="s" horiz-adv-x="383" unicode="s" d="M177 -8q-83 0 -135 27v46q58 -29 128 -29q119 0 119 93q0 22 -6.5 37t-25.5 27t-32 17.5t-47 18.5q-64 23 -97 54t-33 83q0 63 41.5 95.5t111.5 32.5q65 0 116 -23v-47q-47 26 -115 26q-49 0 -76 -21t-27 -60q0 -36 25 -56t76 -38q33 -12 52.5 -21t43 -25.5t35 -41 t11.5 -56.5q0 -63 -45.5 -101t-119.5 -38z"/>
<glyph glyph-name="t" horiz-adv-x="290" unicode="t" d="M21 444v42h67l11 130h42v-130h112v-42h-112v-318q0 -49 17 -69t57 -20q34 0 58 12v-45q-33 -12 -67 -12q-62 0 -90 29.5t-28 99.5v323h-67z"/>
<glyph glyph-name="u" d="M236 -8q-156 0 -156 173v321h51v-310q0 -68 26 -103.5t92 -35.5q61 0 123 40v409h52v-486h-52v39q-57 -47 -136 -47z" unicode="u"/>
<glyph glyph-name="v" horiz-adv-x="432" unicode="v" d="M187 0l-168 486h54l144 -426l143 426h52l-169 -486h-56z"/>
<glyph glyph-name="w" horiz-adv-x="659" unicode="w" d="M430 0l-99 313l-96 -313h-58l-153 486h54l131 -424l100 323l-32 101h53l130 -424l122 424h51l-147 -486h-56z"/>
<glyph glyph-name="x" horiz-adv-x="438" unicode="x" d="M18 0l167 258l-154 228h59l128 -189l120 189h57l-150 -228l174 -258h-59l-148 220l-138 -220h-56z"/>
<glyph glyph-name="y" horiz-adv-x="433" unicode="y" d="M87 -188q-32 0 -51 8v42q21 -7 49 -7q40 0 62.5 26t36.5 73l15 49l-181 483h55l153 -414l136 414h52l-188 -554q-21 -63 -52.5 -91.5t-86.5 -28.5z"/>
<glyph glyph-name="z" horiz-adv-x="398" unicode="z" d="M40 0v42l256 401h-243v43h299v-45l-254 -398h263v-43h-321z"/>
<glyph glyph-name="braceleft" horiz-adv-x="333" unicode="{" d="M235 -111q-46 0 -73.5 27t-27.5 79v158q0 105 -110 106v52q110 1 110 105v158q0 52 27 79t74 27h77v-42h-65q-35 0 -48.5 -19t-13.5 -59v-151q0 -106 -103 -122v-1q103 -16 103 -128v-151q0 -40 13 -58t48 -18h66v-42h-77z"/>
<glyph glyph-name="bar" horiz-adv-x="272" unicode="|" d="M116 -250v1000h40v-1000h-40z"/>
<glyph glyph-name="braceright" horiz-adv-x="333" unicode="}" d="M98 680q46 0 73.5 -27t27.5 -79v-158q0 -105 110 -106v-52q-110 -1 -110 -105v-158q0 -52 -27 -79t-74 -27h-77v42h65q35 0 48.5 19t13.5 59v151q0 106 103 122v1q-103 16 -103 128v151q0 40 -13 58t-48 18h-66v42h77z"/>
<glyph glyph-name="asciitilde" horiz-adv-x="559" unicode="~" d="M79 189l-28 29q64 72 134 72q35 0 93 -23.5t93 -23.5q55 0 103 54l28 -29q-60 -72 -135 -72q-41 0 -99 23.5t-85 23.5q-57 0 -104 -54z"/>
<glyph glyph-name="uni00A0" horiz-adv-x="236" unicode=" "/>
<glyph glyph-name="exclamdown" horiz-adv-x="260" unicode="¡" d="M99 -138l11 463h42l11 -463h-64zM132 493q17 0 29.5 -12.5t12.5 -30.5t-12.5 -30t-29.5 -12q-18 0 -30.5 12t-12.5 30t12.5 30.5t30.5 12.5z"/>
<glyph glyph-name="cent" horiz-adv-x="420" unicode="¢" d="M230 -122v115q-88 8 -139 72t-51 167q0 107 48.5 180t141.5 81v114h45v-114q56 -5 92 -25v-45q-49 27 -113 27q-81 0 -121 -57.5t-40 -158.5q0 -96 46 -147t123 -51q69 0 115 26v-44q-43 -22 -102 -25v-115h-45z"/>
<glyph glyph-name="sterling" horiz-adv-x="448" unicode="£" d="M56 288v42h89l-4 9q-40 88 -40 141q0 71 47 111t123 40q53 0 105 -15v-48q-51 17 -101 17q-57 0 -89 -26.5t-32 -78.5q0 -12 2 -24.5t3.5 -21t6.5 -23t7 -19.5t9 -22t8 -20q6 -14 8 -20h150v-42h-136q9 -38 9 -66q0 -58 -25.5 -104t-65.5 -74h270v-44h-343v37 q114 66 114 184q0 29 -11 67h-104z"/>
<glyph glyph-name="currency" horiz-adv-x="495" unicode="¤" d="M248 107q58 0 88 41.5t30 96.5q0 56 -30 98t-88 42q-59 0 -89.5 -42t-30.5 -98q0 -55 30.5 -96.5t89.5 -41.5zM412 -21l-80 107q-37 -21 -84 -21q-49 0 -85 21l-79 -107l-38 27l82 106q-49 51 -49 134q0 82 49 132l-82 105l37 27l79 -105q38 22 86 22q47 0 85 -22l80 105 l37 -27l-82 -105q47 -50 47 -133q0 -81 -48 -132l83 -107z"/>
<glyph glyph-name="yen" horiz-adv-x="483" unicode="¥" d="M60 231v38h141l-187 353h56l172 -329l170 329h56l-188 -353h150v-38h-163v-88h163v-39h-163v-104h-54v104h-153v39h153v88h-153z"/>
<glyph glyph-name="brokenbar" horiz-adv-x="214" unicode="¦" d="M86 346v404h40v-404h-40zM86 -250v414h40v-414h-40z"/>
<glyph glyph-name="section" horiz-adv-x="459" unicode="§" d="M223 370q-5 6 -22 25.5t-26 30.5q-20 -12 -34 -32.5t-14 -44.5t16 -53.5t34 -51t55 -63.5q36 -40 52 -61q48 30 48 77q0 24 -17 54.5t-34 51.5t-58 67zM204 -141q-56 0 -98 14v47q41 -18 98 -18q41 0 65 20.5t24 58.5q0 27 -17.5 59.5t-35.5 54t-58 66.5q-50 55 -77 98.5 t-27 89.5q0 70 71 114q-34 52 -34 101q0 59 38.5 91.5t101.5 32.5q56 0 98 -14v-47q-44 18 -98 18q-41 0 -65 -21t-24 -59t26 -76.5t76 -93.5q35 -38 55.5 -63t39.5 -62.5t19 -71.5q0 -69 -72 -114q34 -54 34 -101q0 -59 -38.5 -91.5t-101.5 -32.5z"/>
<glyph glyph-name="dieresis" horiz-adv-x="405" unicode="¨" d="M284 578q-16 0 -27 11.5t-11 27.5t11 27t27 11q15 0 26 -11t11 -27t-11 -27.5t-26 -11.5zM121 578q-15 0 -26 11.5t-11 27.5t11 27t26 11q16 0 27 -11t11 -27t-11 -27.5t-27 -11.5z"/>
<glyph glyph-name="copyright" horiz-adv-x="764" unicode="©" d="M382 26q120 0 199.5 82.5t79.5 203.5q0 120 -79.5 202.5t-199.5 82.5q-118 0 -198 -83t-80 -202q0 -121 79.5 -203.5t198.5 -82.5zM382 -8q-131 0 -223.5 93.5t-92.5 226.5q0 132 92.5 225.5t223.5 93.5t224 -93.5t93 -225.5q0 -133 -93 -226.5t-224 -93.5zM390 121 q-77 0 -124.5 50.5t-47.5 135.5q0 79 44 135t122 56q54 0 97 -20v-43q-46 23 -93 23q-55 0 -87.5 -40t-32.5 -112q0 -68 35.5 -105.5t91.5 -37.5q50 0 94 22v-42q-46 -22 -99 -22z"/>
<glyph glyph-name="ordfeminine" horiz-adv-x="359" unicode="ª" d="M164 306q49 0 77 26v108q-8 1 -26 1q-129 0 -129 -74q0 -29 20.5 -45t57.5 -16zM158 266q-54 0 -87 25.5t-33 73.5q0 56 46 84t127 28q20 0 30 -1v33q0 43 -17 62t-63 19q-43 0 -90 -19v41q42 19 95 19q121 0 121 -112v-188q0 -25 23 -25q7 0 17 2v-37q-15 -5 -32 -5 q-38 0 -48 32q-38 -32 -89 -32z"/>
<glyph glyph-name="guillemotleft" horiz-adv-x="453" unicode="«" d="M350 56l-138 189l138 189h55l-137 -189l137 -189h-55zM188 56l-138 189l138 189h56l-138 -189l138 -189h-56z"/>
<glyph glyph-name="logicalnot" horiz-adv-x="598" unicode="¬" d="M498 30v218h-458v45h506v-263h-48z"/>
<glyph glyph-name="uni00AD" horiz-adv-x="301" unicode="­" d="M57 266v45h189v-45h-189z"/>
<glyph glyph-name="registered" horiz-adv-x="764" unicode="®" d="M315 458v-132h65q36 0 55.5 19t19.5 47q0 31 -19.5 48.5t-55.5 17.5h-65zM382 26q120 0 199.5 82.5t79.5 203.5q0 120 -79.5 202.5t-199.5 82.5q-118 0 -198 -83t-80 -202q0 -121 79.5 -203.5t198.5 -82.5zM382 -8q-131 0 -223.5 93.5t-92.5 226.5q0 132 92.5 225.5 t223.5 93.5t224 -93.5t93 -225.5q0 -133 -93 -226.5t-224 -93.5zM506 130q-41 0 -64 38l-75 122h-52v-156h-46v362h116q52 0 84.5 -28t32.5 -76q0 -38 -25.5 -66t-61.5 -34l67 -105q14 -22 31 -22q10 0 16 1v-34q-14 -2 -23 -2z"/>
<glyph glyph-name="macron" horiz-adv-x="500" unicode="¯" d="M116 567v44h267v-44h-267z"/>
<glyph glyph-name="degree" horiz-adv-x="340" unicode="°" d="M170 463q36 0 59.5 25t23.5 62q0 36 -23.5 61.5t-59.5 25.5t-59 -25.5t-23 -61.5q0 -37 23 -62t59 -25zM170 424q-52 0 -89 37.5t-37 88.5t37 88.5t89 37.5t89.5 -37.5t37.5 -88.5t-37 -88.5t-90 -37.5z"/>
<glyph glyph-name="plusminus" horiz-adv-x="579" unicode="±" d="M77 -99v45h428v-45h-428zM45 232v44h221v210h50v-210h218v-44h-218v-232h-50v232h-221z"/>
<glyph glyph-name="twosuperior" horiz-adv-x="285" unicode="²" d="M247 301h-227v35q46 34 69.5 53t52.5 46t41.5 50t12.5 45q0 61 -73 61q-44 0 -86 -19v40q44 19 93 19q55 0 86 -24t31 -70q0 -50 -41 -93t-125 -103h166v-40z"/>
<glyph glyph-name="threesuperior" horiz-adv-x="275" unicode="³" d="M115 296q-42 0 -86 12v40q38 -12 80 -12q38 0 63.5 15.5t25.5 42.5q0 59 -108 59h-14v34h9q103 0 103 56q0 23 -19.5 36t-52.5 13q-39 0 -77 -12v39q38 12 85 12q71 0 99 -37q16 -17 16 -44q0 -57 -71 -76v-1q81 -17 81 -80q0 -45 -38 -71t-96 -26z"/>
<glyph glyph-name="acute" horiz-adv-x="500" unicode="´" d="M218 556l95 119h75l-122 -119h-48z"/>
<glyph glyph-name="mu" d="M81 -180v666h52v-318q0 -131 117 -131q61 0 123 40v409h52v-486h-52v39q-57 -47 -136 -47q-38 0 -67 14t-40 38h-2q5 -35 5 -91v-133h-52z" unicode="µ"/>
<glyph glyph-name="paragraph" horiz-adv-x="641" unicode="¶" d="M266 -180v418q-81 0 -136 52.5t-55 138.5t55 140t136 54h295v-45h-83v-758h-48v758h-116v-758h-48z"/>
<glyph glyph-name="periodcentered" horiz-adv-x="211" unicode="·" d="M106 246q-19 0 -32.5 13t-13.5 32t13.5 32t32.5 13t32 -13t13 -32t-13 -32t-32 -13z"/>
<glyph glyph-name="cedilla" horiz-adv-x="404" unicode="¸" d="M194 -198q-34 0 -54 9v34q20 -9 52 -9q25 0 41.5 10.5t16.5 32.5q0 42 -72 42l31 79h39l-20 -54q32 -4 49 -23t17 -44q0 -36 -27 -56.5t-73 -20.5z"/>
<glyph glyph-name="onesuperior" horiz-adv-x="208" unicode="¹" d="M145 301h-49v278q-31 -17 -85 -26v40q53 10 93 34h41v-326z"/>
<glyph glyph-name="ordmasculine" horiz-adv-x="387" unicode="º" d="M193 305q105 0 105 143t-105 143q-104 0 -104 -144q0 -142 104 -142zM193 266q-76 0 -114 51t-38 130q0 80 37 132t115 52t115.5 -52t37.5 -131t-38.5 -130.5t-114.5 -51.5z"/>
<glyph glyph-name="guillemotright" horiz-adv-x="453" unicode="»" d="M102 435l138 -189l-138 -189h-55l137 189l-137 189h55zM264 435l138 -189l-138 -189h-56l138 189l-138 189h56z"/>
<glyph glyph-name="onequarter" horiz-adv-x="628" unicode="¼" d="M46 -36l423 679h48l-422 -679h-49zM145 301h-49v278q-31 -17 -85 -26v40q53 10 93 34h41v-326zM511 104v169h-1l-128 -169h129zM615 67h-57v-67h-48v67h-173v34l171 225h50v-220h57v-39z"/>
<glyph glyph-name="onehalf" horiz-adv-x="658" unicode="½" d="M46 -36l423 679h48l-422 -679h-49zM145 301h-49v278q-31 -17 -85 -26v40q53 10 93 34h41v-326zM619 0h-227v35q46 34 69.5 53t52.5 46t41.5 50t12.5 45q0 61 -73 61q-44 0 -86 -19v40q44 19 93 19q55 0 86 -24t31 -70q0 -50 -41 -93t-125 -103h166v-40z"/>
<glyph glyph-name="threequarters" horiz-adv-x="689" unicode="¾" d="M108 -36l423 679h48l-422 -679h-49zM115 296q-42 0 -86 12v40q38 -12 80 -12q38 0 63.5 15.5t25.5 42.5q0 59 -108 59h-14v34h9q103 0 103 56q0 23 -19.5 36t-52.5 13q-39 0 -77 -12v39q38 12 85 12q71 0 99 -37q16 -17 16 -44q0 -57 -71 -76v-1q81 -17 81 -80 q0 -45 -38 -71t-96 -26zM573 104v169h-1l-128 -169h129zM677 67h-57v-67h-48v67h-173v34l171 225h50v-220h57v-39z"/>
<glyph glyph-name="questiondown" horiz-adv-x="398" unicode="¿" d="M242 493q18 0 30.5 -12.5t12.5 -30.5t-12.5 -30t-30.5 -12q-17 0 -29.5 12t-12.5 30t12.5 30.5t29.5 12.5zM269 324q7 -28 7 -50q0 -39 -17.5 -70t-42 -51.5t-49 -40.5t-42 -46.5t-17.5 -59.5q0 -50 35.5 -78.5t97.5 -28.5q50 0 97 19v-46q-52 -18 -104 -18 q-83 0 -131.5 41.5t-48.5 105.5q0 42 18 74.5t43.5 53.5t50.5 40.5t43 47t18 62.5q0 17 -5 45h47z"/>
<glyph glyph-name="Agrave" horiz-adv-x="557" unicode="À" d="M251 681l-121 119h75l94 -119h-48zM279 575l-124 -353h244zM23 0l226 623h65l220 -623h-59l-60 176h-276l-61 -176h-55z"/>
<glyph glyph-name="Aacute" horiz-adv-x="557" unicode="Á" d="M255 681l95 119h75l-122 -119h-48zM279 575l-124 -353h244zM23 0l226 623h65l220 -623h-59l-60 176h-276l-61 -176h-55z"/>
<glyph glyph-name="Acircumflex" horiz-adv-x="557" unicode="Â" d="M140 681l120 146h37l119 -146h-49l-90 100l-89 -100h-48zM279 575l-124 -353h244zM23 0l226 623h65l220 -623h-59l-60 176h-276l-61 -176h-55z"/>
<glyph glyph-name="Atilde" horiz-adv-x="557" unicode="Ã" d="M172 698l-29 25q39 51 92 51q23 0 51 -14t43 -14q28 0 56 34l28 -26q-40 -51 -93 -51q-21 0 -48.5 14t-44.5 14q-31 0 -55 -33zM279 575l-124 -353h244zM23 0l226 623h65l220 -623h-59l-60 176h-276l-61 -176h-55z"/>
<glyph glyph-name="Adieresis" horiz-adv-x="557" unicode="Ä" d="M359 703q-16 0 -27 11.5t-11 27.5t11 27t27 11q15 0 26 -11t11 -27t-11 -27.5t-26 -11.5zM196 703q-15 0 -26 11.5t-11 27.5t11 27t26 11q16 0 27 -11t11 -27t-11 -27.5t-27 -11.5zM279 575l-124 -353h244zM23 0l226 623h65l220 -623h-59l-60 176h-276l-61 -176h-55z"/>
<glyph glyph-name="Aring" horiz-adv-x="557" unicode="Å" d="M278 702q24 0 39 17t15 41q0 25 -15 42t-39 17t-39 -17t-15 -42q0 -24 15 -41t39 -17zM278 670q-36 0 -63.5 26.5t-27.5 63.5q0 38 27 64.5t64 26.5t64 -26.5t27 -64.5q0 -37 -27.5 -63.5t-63.5 -26.5zM279 575l-124 -353h244zM23 0l226 623h65l220 -623h-59l-60 176 h-276l-61 -176h-55z"/>
<glyph glyph-name="AE" horiz-adv-x="749" unicode="Æ" d="M375 580l-202 -357h202v357zM-9 0l354 623h344v-46h-261v-217h224v-45h-224v-269h261v-46h-314v183h-224l-103 -183h-57z"/>
<glyph glyph-name="Ccedilla" horiz-adv-x="530" unicode="Ç" d="M260 -198q-34 0 -54 9v34q20 -9 52 -9q25 0 41.5 10.5t16.5 32.5q0 42 -72 42l30 77q-101 19 -157.5 100t-56.5 205q0 144 72 236t205 92q81 0 136 -25v-50q-56 28 -134 28q-109 0 -166 -76t-57 -205q0 -121 60 -192.5t169 -71.5q82 0 141 31v-50q-62 -28 -149 -28 q-4 0 -12.5 0.5t-13.5 0.5l-17 -47q32 -4 49 -23t17 -44q0 -36 -27 -56.5t-73 -20.5z"/>
<glyph glyph-name="Egrave" horiz-adv-x="469" unicode="È" d="M225 681l-121 119h75l94 -119h-48zM94 0v623h314v-46h-260v-217h223v-45h-223v-269h260v-46h-314z"/>
<glyph glyph-name="Eacute" horiz-adv-x="469" unicode="É" d="M94 0v623h314v-46h-260v-217h223v-45h-223v-269h260v-46h-314zM228 681l95 119h75l-122 -119h-48z"/>
<glyph glyph-name="Ecircumflex" horiz-adv-x="469" unicode="Ê" d="M94 0v623h314v-46h-260v-217h223v-45h-223v-269h260v-46h-314zM112 681l120 146h37l119 -146h-49l-90 100l-89 -100h-48z"/>
<glyph glyph-name="Edieresis" horiz-adv-x="469" unicode="Ë" d="M94 0v623h314v-46h-260v-217h223v-45h-223v-269h260v-46h-314zM332 703q-16 0 -27 11.5t-11 27.5t11 27t27 11q15 0 26 -11t11 -27t-11 -27.5t-26 -11.5zM169 703q-15 0 -26 11.5t-11 27.5t11 27t26 11q16 0 27 -11t11 -27t-11 -27.5t-27 -11.5z"/>
<glyph glyph-name="Igrave" horiz-adv-x="247" unicode="Ì" d="M98 681l-121 119h75l94 -119h-48zM96 0v623h54v-623h-54z"/>
<glyph glyph-name="Iacute" horiz-adv-x="247" unicode="Í" d="M101 681l95 119h75l-122 -119h-48zM96 0v623h54v-623h-54z"/>
<glyph glyph-name="Icircumflex" horiz-adv-x="247" unicode="Î" d="M-14 681l120 146h37l119 -146h-49l-90 100l-89 -100h-48zM96 0v623h54v-623h-54z"/>
<glyph glyph-name="Idieresis" horiz-adv-x="247" unicode="Ï" d="M206 703q-16 0 -27 11.5t-11 27.5t11 27t27 11q15 0 26 -11t11 -27t-11 -27.5t-26 -11.5zM43 703q-15 0 -26 11.5t-11 27.5t11 27t26 11q16 0 27 -11t11 -27t-11 -27.5t-27 -11.5zM96 0v623h54v-623h-54z"/>
<glyph glyph-name="Eth" horiz-adv-x="612" unicode="Ð" d="M151 578v-240h108v-42h-108v-250h112q65 0 112 22t72 61t36.5 83.5t11.5 98.5t-11 98.5t-35.5 84t-71 62t-111.5 22.5h-115zM28 296v42h69v285h177q72 0 127 -25.5t87 -69.5t47.5 -98.5t15.5 -118.5q0 -61 -15.5 -114.5t-47 -99t-87 -71.5t-129.5 -26h-175v296h-69z"/>
<glyph glyph-name="Ntilde" horiz-adv-x="634" unicode="Ñ" d="M213 698l-29 25q39 51 92 51q23 0 51 -14t43 -14q28 0 56 34l28 -26q-40 -51 -93 -51q-21 0 -48.5 14t-44.5 14q-31 0 -55 -33zM95 0v623h60l333 -546v545h51v-622h-62l-331 541v-541h-51z"/>
<glyph glyph-name="Ograve" horiz-adv-x="654" unicode="Ò" d="M301 681l-121 119h75l94 -119h-48zM328 38q105 0 157.5 75.5t52.5 198.5q0 124 -52 198.5t-158 74.5t-158.5 -75.5t-52.5 -198.5q0 -125 52 -199t159 -74zM328 -8q-136 0 -202 88t-66 231q0 87 26 157t88.5 116.5t153.5 46.5q135 0 201 -88.5t66 -230.5q0 -136 -67 -228 t-200 -92z"/>
<glyph glyph-name="Oacute" horiz-adv-x="654" unicode="Ó" d="M328 38q105 0 157.5 75.5t52.5 198.5q0 124 -52 198.5t-158 74.5t-158.5 -75.5t-52.5 -198.5q0 -125 52 -199t159 -74zM328 -8q-136 0 -202 88t-66 231q0 87 26 157t88.5 116.5t153.5 46.5q135 0 201 -88.5t66 -230.5q0 -136 -67 -228t-200 -92zM304 681l95 119h75 l-122 -119h-48z"/>
<glyph glyph-name="Ocircumflex" horiz-adv-x="654" unicode="Ô" d="M328 38q105 0 157.5 75.5t52.5 198.5q0 124 -52 198.5t-158 74.5t-158.5 -75.5t-52.5 -198.5q0 -125 52 -199t159 -74zM328 -8q-136 0 -202 88t-66 231q0 87 26 157t88.5 116.5t153.5 46.5q135 0 201 -88.5t66 -230.5q0 -136 -67 -228t-200 -92zM189 681l120 146h37 l119 -146h-49l-90 100l-89 -100h-48z"/>
<glyph glyph-name="Otilde" horiz-adv-x="654" unicode="Õ" d="M221 698l-29 25q39 51 92 51q23 0 51 -14t43 -14q28 0 56 34l28 -26q-40 -51 -93 -51q-21 0 -48.5 14t-44.5 14q-31 0 -55 -33zM328 38q105 0 157.5 75.5t52.5 198.5q0 124 -52 198.5t-158 74.5t-158.5 -75.5t-52.5 -198.5q0 -125 52 -199t159 -74zM328 -8 q-136 0 -202 88t-66 231q0 87 26 157t88.5 116.5t153.5 46.5q135 0 201 -88.5t66 -230.5q0 -136 -67 -228t-200 -92z"/>
<glyph glyph-name="Odieresis" horiz-adv-x="654" unicode="Ö" d="M328 38q105 0 157.5 75.5t52.5 198.5q0 124 -52 198.5t-158 74.5t-158.5 -75.5t-52.5 -198.5q0 -125 52 -199t159 -74zM328 -8q-136 0 -202 88t-66 231q0 87 26 157t88.5 116.5t153.5 46.5q135 0 201 -88.5t66 -230.5q0 -136 -67 -228t-200 -92zM409 703q-16 0 -27 11.5 t-11 27.5t11 27t27 11q15 0 26 -11t11 -27t-11 -27.5t-26 -11.5zM246 703q-15 0 -26 11.5t-11 27.5t11 27t26 11q16 0 27 -11t11 -27t-11 -27.5t-27 -11.5z"/>
<glyph glyph-name="multiply" horiz-adv-x="512" unicode="×" d="M100 59l-31 32l152 155l-150 153l33 34l150 -154l150 154l31 -32l-150 -153l158 -162l-33 -33l-158 161z"/>
<glyph glyph-name="Oslash" horiz-adv-x="654" unicode="Ø" d="M117 311q0 -123 48 -193l284 429q-49 38 -121 38q-106 0 -158.5 -75.5t-52.5 -198.5zM328 38q105 0 157.5 75.5t52.5 198.5q0 138 -61 209l-287 -433q53 -50 138 -50zM99 -50l-31 21l66 100q-74 84 -74 240q0 87 26 157t88.5 116.5t153.5 46.5q88 0 149 -41l57 85l31 -21 l-58 -88q88 -84 88 -254q0 -136 -67 -228t-200 -92q-101 0 -167 52z"/>
<glyph glyph-name="Ugrave" horiz-adv-x="613" unicode="Ù" d="M280 681l-121 119h75l94 -119h-48zM307 -8q-98 0 -159 56.5t-61 163.5v411h54v-403q0 -88 42.5 -135t123.5 -47t124 47t43 135v403h52v-411q0 -106 -60.5 -163t-158.5 -57z"/>
<glyph glyph-name="Uacute" horiz-adv-x="613" unicode="Ú" d="M307 -8q-98 0 -159 56.5t-61 163.5v411h54v-403q0 -88 42.5 -135t123.5 -47t124 47t43 135v403h52v-411q0 -106 -60.5 -163t-158.5 -57zM283 681l95 119h75l-122 -119h-48z"/>
<glyph glyph-name="Ucircumflex" horiz-adv-x="613" unicode="Û" d="M307 -8q-98 0 -159 56.5t-61 163.5v411h54v-403q0 -88 42.5 -135t123.5 -47t124 47t43 135v403h52v-411q0 -106 -60.5 -163t-158.5 -57zM168 681l120 146h37l119 -146h-49l-90 100l-89 -100h-48z"/>
<glyph glyph-name="Udieresis" horiz-adv-x="613" unicode="Ü" d="M307 -8q-98 0 -159 56.5t-61 163.5v411h54v-403q0 -88 42.5 -135t123.5 -47t124 47t43 135v403h52v-411q0 -106 -60.5 -163t-158.5 -57zM387 703q-16 0 -27 11.5t-11 27.5t11 27t27 11q15 0 26 -11t11 -27t-11 -27.5t-26 -11.5zM224 703q-15 0 -26 11.5t-11 27.5t11 27 t26 11q16 0 27 -11t11 -27t-11 -27.5t-27 -11.5z"/>
<glyph glyph-name="Yacute" horiz-adv-x="473" unicode="Ý" d="M214 681l95 119h75l-122 -119h-48zM209 0v246l-200 376h60l170 -323l168 323h57l-201 -376v-246h-54z"/>
<glyph glyph-name="Thorn" horiz-adv-x="489" unicode="Þ" d="M148 466v-271h118q64 0 96 37t32 98q0 60 -32.5 98t-95.5 38h-118zM94 0v623h54v-114h128q82 0 127.5 -50.5t45.5 -128.5q0 -79 -46 -129t-126 -50h-129v-151h-54z"/>
<glyph glyph-name="germandbls" horiz-adv-x="501" unicode="ß" d="M306 -8q-57 0 -97 15v47q48 -17 100 -17q44 0 71.5 22.5t27.5 56.5q0 18 -7 33.5t-24.5 31t-30 24.5t-40.5 27q-36 24 -54.5 46t-18.5 55q0 26 20 52.5t44 46t44 50.5t20 66q0 43 -26 69.5t-77 26.5q-57 0 -88.5 -38t-31.5 -109v-497h-52v492q0 94 47 145t127 51 q70 0 112 -40t42 -96q0 -34 -13.5 -63t-32 -49t-37.5 -37t-32.5 -34.5t-13.5 -34.5q0 -14 10 -27.5t20.5 -21t30.5 -20.5q36 -24 57 -40.5t39.5 -45t18.5 -59.5q0 -62 -44.5 -95t-110.5 -33z"/>
<glyph glyph-name="agrave" horiz-adv-x="447" unicode="à" d="M194 556l-121 119h75l94 -119h-48zM199 36q67 0 112 45v151q-24 2 -54 2q-78 0 -120 -26.5t-42 -77.5q0 -43 28 -68.5t76 -25.5zM190 -8q-69 0 -109 37t-40 96q0 70 55.5 109t155.5 39q25 0 59 -2v70q0 58 -27 83t-88 25q-60 0 -116 -30v47q60 28 125 28q158 0 158 -137 v-272q0 -49 42 -49q7 0 19 2v-40q-20 -6 -38 -6q-55 0 -69 53q-19 -22 -54.5 -37.5t-72.5 -15.5z"/>
<glyph glyph-name="aacute" horiz-adv-x="447" unicode="á" d="M197 556l95 119h75l-122 -119h-48zM199 36q67 0 112 45v151q-24 2 -54 2q-78 0 -120 -26.5t-42 -77.5q0 -43 28 -68.5t76 -25.5zM190 -8q-69 0 -109 37t-40 96q0 70 55.5 109t155.5 39q25 0 59 -2v70q0 58 -27 83t-88 25q-60 0 -116 -30v47q60 28 125 28q158 0 158 -137 v-272q0 -49 42 -49q7 0 19 2v-40q-20 -6 -38 -6q-55 0 -69 53q-19 -22 -54.5 -37.5t-72.5 -15.5z"/>
<glyph glyph-name="acircumflex" horiz-adv-x="447" unicode="â" d="M82 556l120 146h37l119 -146h-49l-90 100l-89 -100h-48zM199 36q67 0 112 45v151q-24 2 -54 2q-78 0 -120 -26.5t-42 -77.5q0 -43 28 -68.5t76 -25.5zM190 -8q-69 0 -109 37t-40 96q0 70 55.5 109t155.5 39q25 0 59 -2v70q0 58 -27 83t-88 25q-60 0 -116 -30v47 q60 28 125 28q158 0 158 -137v-272q0 -49 42 -49q7 0 19 2v-40q-20 -6 -38 -6q-55 0 -69 53q-19 -22 -54.5 -37.5t-72.5 -15.5z"/>
<glyph glyph-name="atilde" horiz-adv-x="447" unicode="ã" d="M114 573l-29 25q39 51 92 51q23 0 51 -14t43 -14q28 0 56 34l28 -26q-40 -51 -93 -51q-21 0 -48.5 14t-44.5 14q-31 0 -55 -33zM199 36q67 0 112 45v151q-24 2 -54 2q-78 0 -120 -26.5t-42 -77.5q0 -43 28 -68.5t76 -25.5zM190 -8q-69 0 -109 37t-40 96q0 70 55.5 109 t155.5 39q25 0 59 -2v70q0 58 -27 83t-88 25q-60 0 -116 -30v47q60 28 125 28q158 0 158 -137v-272q0 -49 42 -49q7 0 19 2v-40q-20 -6 -38 -6q-55 0 -69 53q-19 -22 -54.5 -37.5t-72.5 -15.5z"/>
<glyph glyph-name="adieresis" horiz-adv-x="447" unicode="ä" d="M301 578q-16 0 -27 11.5t-11 27.5t11 27t27 11q15 0 26 -11t11 -27t-11 -27.5t-26 -11.5zM138 578q-15 0 -26 11.5t-11 27.5t11 27t26 11q16 0 27 -11t11 -27t-11 -27.5t-27 -11.5zM199 36q67 0 112 45v151q-24 2 -54 2q-78 0 -120 -26.5t-42 -77.5q0 -43 28 -68.5 t76 -25.5zM190 -8q-69 0 -109 37t-40 96q0 70 55.5 109t155.5 39q25 0 59 -2v70q0 58 -27 83t-88 25q-60 0 -116 -30v47q60 28 125 28q158 0 158 -137v-272q0 -49 42 -49q7 0 19 2v-40q-20 -6 -38 -6q-55 0 -69 53q-19 -22 -54.5 -37.5t-72.5 -15.5z"/>
<glyph glyph-name="aring" horiz-adv-x="447" unicode="å" d="M220 577q24 0 39 17t15 41q0 25 -15 42t-39 17t-39 -17t-15 -42q0 -24 15 -41t39 -17zM220 545q-36 0 -63.5 26.5t-27.5 63.5q0 38 27 64.5t64 26.5t64 -26.5t27 -64.5q0 -37 -27.5 -63.5t-63.5 -26.5zM199 36q67 0 112 45v151q-24 2 -54 2q-78 0 -120 -26.5t-42 -77.5 q0 -43 28 -68.5t76 -25.5zM190 -8q-69 0 -109 37t-40 96q0 70 55.5 109t155.5 39q25 0 59 -2v70q0 58 -27 83t-88 25q-60 0 -116 -30v47q60 28 125 28q158 0 158 -137v-272q0 -49 42 -49q7 0 19 2v-40q-20 -6 -38 -6q-55 0 -69 53q-19 -22 -54.5 -37.5t-72.5 -15.5z"/>
<glyph glyph-name="ae" horiz-adv-x="734" unicode="æ" d="M365 279h276v12q0 66 -32.5 112.5t-90.5 46.5q-64 0 -107 -43.5t-46 -127.5zM199 36q43 0 79 20t57 52q-25 58 -25 130v6q-12 1 -48 1q-167 0 -167 -110q0 -44 28 -71.5t76 -27.5zM191 -8q-68 0 -109 38t-41 100q0 75 56.5 115t159.5 40q37 0 54 -1v41q0 124 -120 124 q-67 0 -117 -31v47q56 29 127 29q56 0 95.5 -25t53.5 -74q23 47 67.5 73t101.5 26q88 0 131.5 -64t43.5 -153q0 -25 -1 -39h-329v-5q0 -85 42.5 -141t124.5 -56q77 0 135 30v-46q-52 -28 -136 -28q-116 0 -174 82q-71 -82 -165 -82z"/>
<glyph glyph-name="ccedilla" horiz-adv-x="412" unicode="ç" d="M199 -198q-34 0 -54 9v34q20 -9 52 -9q25 0 41.5 10.5t16.5 32.5q0 42 -72 42l29 75q-79 14 -124 76.5t-45 159.5q0 113 53.5 187.5t155.5 74.5q72 0 118 -26v-45q-49 27 -113 27q-81 0 -121 -58t-40 -160q0 -95 46 -145.5t123 -50.5q69 0 115 26v-44q-49 -26 -122 -26 h-8l-17 -46q32 -4 49 -23t17 -44q0 -36 -27 -56.5t-73 -20.5z"/>
<glyph glyph-name="egrave" horiz-adv-x="466" unicode="è" d="M220 556l-121 119h75l94 -119h-48zM251 450q-55 0 -98 -35t-54 -119h274v5q0 62 -32.5 105.5t-89.5 43.5zM267 -8q-109 0 -166.5 67t-57.5 182q0 114 56.5 183.5t152.5 69.5q60 0 101 -32t57 -76.5t16 -96.5q0 -21 -1 -34h-329v-12q0 -92 43 -149.5t129 -57.5 q71 0 131 30v-46q-56 -28 -132 -28z"/>
<glyph glyph-name="eacute" horiz-adv-x="466" unicode="é" d="M251 450q-55 0 -98 -35t-54 -119h274v5q0 62 -32.5 105.5t-89.5 43.5zM267 -8q-109 0 -166.5 67t-57.5 182q0 114 56.5 183.5t152.5 69.5q60 0 101 -32t57 -76.5t16 -96.5q0 -21 -1 -34h-329v-12q0 -92 43 -149.5t129 -57.5q71 0 131 30v-46q-56 -28 -132 -28zM222 556 l95 119h75l-122 -119h-48z"/>
<glyph glyph-name="ecircumflex" horiz-adv-x="466" unicode="ê" d="M251 450q-55 0 -98 -35t-54 -119h274v5q0 62 -32.5 105.5t-89.5 43.5zM267 -8q-109 0 -166.5 67t-57.5 182q0 114 56.5 183.5t152.5 69.5q60 0 101 -32t57 -76.5t16 -96.5q0 -21 -1 -34h-329v-12q0 -92 43 -149.5t129 -57.5q71 0 131 30v-46q-56 -28 -132 -28zM108 556 l120 146h37l119 -146h-49l-90 100l-89 -100h-48z"/>
<glyph glyph-name="edieresis" horiz-adv-x="466" unicode="ë" d="M251 450q-55 0 -98 -35t-54 -119h274v5q0 62 -32.5 105.5t-89.5 43.5zM267 -8q-109 0 -166.5 67t-57.5 182q0 114 56.5 183.5t152.5 69.5q60 0 101 -32t57 -76.5t16 -96.5q0 -21 -1 -34h-329v-12q0 -92 43 -149.5t129 -57.5q71 0 131 30v-46q-56 -28 -132 -28zM327 578 q-16 0 -27 11.5t-11 27.5t11 27t27 11q15 0 26 -11t11 -27t-11 -27.5t-26 -11.5zM164 578q-15 0 -26 11.5t-11 27.5t11 27t26 11q16 0 27 -11t11 -27t-11 -27.5t-27 -11.5z"/>
<glyph glyph-name="igrave" horiz-adv-x="229" unicode="ì" d="M89 556l-121 119h75l94 -119h-48zM88 0v486h52v-486h-52z"/>
<glyph glyph-name="iacute" horiz-adv-x="229" unicode="í" d="M88 0v486h52v-486h-52zM92 556l95 119h75l-122 -119h-48z"/>
<glyph glyph-name="icircumflex" horiz-adv-x="229" unicode="î" d="M88 0v486h52v-486h-52zM-23 556l120 146h37l119 -146h-49l-90 100l-89 -100h-48z"/>
<glyph glyph-name="idieresis" horiz-adv-x="229" unicode="ï" d="M88 0v486h52v-486h-52zM197 578q-16 0 -27 11.5t-11 27.5t11 27t27 11q15 0 26 -11t11 -27t-11 -27.5t-26 -11.5zM34 578q-15 0 -26 11.5t-11 27.5t11 27t26 11q16 0 27 -11t11 -27t-11 -27.5t-27 -11.5z"/>
<glyph glyph-name="eth" horiz-adv-x="506" unicode="ð" d="M245 37q87 0 123 65.5t36 196.5q0 28 -1 37q-19 40 -58 67.5t-94 27.5q-77 0 -113.5 -56t-36.5 -142q0 -88 37 -142t107 -54zM201 550l-26 32l62 51q-55 22 -129 22v44q100 0 169 -34l73 60l24 -32l-60 -50q143 -101 143 -347q0 -304 -212 -304q-88 0 -142 63.5 t-54 178.5q0 104 53.5 172.5t143.5 68.5q98 0 150 -67q-23 141 -120 204z"/>
<glyph glyph-name="ntilde" d="M150 573l-29 25q39 51 92 51q23 0 51 -14t43 -14q28 0 56 34l28 -26q-40 -51 -93 -51q-21 0 -48.5 14t-44.5 14q-31 0 -55 -33zM84 0v486h52v-39q61 47 136 47q157 0 157 -173v-321h-52v312q0 67 -26.5 102t-92.5 35q-61 0 -122 -40v-409h-52z" unicode="ñ"/>
<glyph glyph-name="ograve" horiz-adv-x="494" unicode="ò" d="M221 556l-121 119h75l94 -119h-48zM247 35q44 0 75 19t46.5 51.5t22 65.5t6.5 71q0 54 -11 97t-46.5 77t-93.5 34q-43 0 -74 -19t-46.5 -51.5t-22 -66t-6.5 -71.5q0 -30 3.5 -57.5t14 -55.5t27 -48t43.5 -33t62 -13zM246 -8q-102 0 -152.5 69t-50.5 181q0 107 51.5 179.5 t152.5 72.5q102 0 152.5 -69.5t50.5 -182.5q0 -106 -52 -178t-152 -72z"/>
<glyph glyph-name="oacute" horiz-adv-x="494" unicode="ó" d="M247 35q44 0 75 19t46.5 51.5t22 65.5t6.5 71q0 54 -11 97t-46.5 77t-93.5 34q-43 0 -74 -19t-46.5 -51.5t-22 -66t-6.5 -71.5q0 -30 3.5 -57.5t14 -55.5t27 -48t43.5 -33t62 -13zM246 -8q-102 0 -152.5 69t-50.5 181q0 107 51.5 179.5t152.5 72.5q102 0 152.5 -69.5 t50.5 -182.5q0 -106 -52 -178t-152 -72zM223 556l95 119h75l-122 -119h-48z"/>
<glyph glyph-name="ocircumflex" horiz-adv-x="494" unicode="ô" d="M247 35q44 0 75 19t46.5 51.5t22 65.5t6.5 71q0 54 -11 97t-46.5 77t-93.5 34q-43 0 -74 -19t-46.5 -51.5t-22 -66t-6.5 -71.5q0 -30 3.5 -57.5t14 -55.5t27 -48t43.5 -33t62 -13zM246 -8q-102 0 -152.5 69t-50.5 181q0 107 51.5 179.5t152.5 72.5q102 0 152.5 -69.5 t50.5 -182.5q0 -106 -52 -178t-152 -72zM109 556l120 146h37l119 -146h-49l-90 100l-89 -100h-48z"/>
<glyph glyph-name="otilde" horiz-adv-x="494" unicode="õ" d="M141 573l-29 25q39 51 92 51q23 0 51 -14t43 -14q28 0 56 34l28 -26q-40 -51 -93 -51q-21 0 -48.5 14t-44.5 14q-31 0 -55 -33zM247 35q44 0 75 19t46.5 51.5t22 65.5t6.5 71q0 54 -11 97t-46.5 77t-93.5 34q-43 0 -74 -19t-46.5 -51.5t-22 -66t-6.5 -71.5 q0 -30 3.5 -57.5t14 -55.5t27 -48t43.5 -33t62 -13zM246 -8q-102 0 -152.5 69t-50.5 181q0 107 51.5 179.5t152.5 72.5q102 0 152.5 -69.5t50.5 -182.5q0 -106 -52 -178t-152 -72z"/>
<glyph glyph-name="odieresis" horiz-adv-x="494" unicode="ö" d="M247 35q44 0 75 19t46.5 51.5t22 65.5t6.5 71q0 54 -11 97t-46.5 77t-93.5 34q-43 0 -74 -19t-46.5 -51.5t-22 -66t-6.5 -71.5q0 -30 3.5 -57.5t14 -55.5t27 -48t43.5 -33t62 -13zM246 -8q-102 0 -152.5 69t-50.5 181q0 107 51.5 179.5t152.5 72.5q102 0 152.5 -69.5 t50.5 -182.5q0 -106 -52 -178t-152 -72zM328 578q-16 0 -27 11.5t-11 27.5t11 27t27 11q15 0 26 -11t11 -27t-11 -27.5t-26 -11.5zM165 578q-15 0 -26 11.5t-11 27.5t11 27t26 11q16 0 27 -11t11 -27t-11 -27.5t-27 -11.5z"/>
<glyph glyph-name="divide" horiz-adv-x="575" unicode="÷" d="M44 232v44h487v-44h-487zM288 373q-18 0 -30.5 12.5t-12.5 29.5t12.5 29.5t30.5 12.5q17 0 29 -12.5t12 -29.5t-12 -29.5t-29 -12.5zM288 51q-18 0 -30.5 12t-12.5 30q0 17 12.5 29t30.5 12q17 0 29 -12t12 -29q0 -18 -12 -30t-29 -12z"/>
<glyph glyph-name="oslash" horiz-adv-x="494" unicode="ø" d="M247 35q44 0 75 19t46.5 51.5t22 65.5t6.5 71q0 87 -31 142l-214 -315q37 -34 95 -34zM97 242q0 -89 31 -142l213 315q-35 35 -95 35q-43 0 -74 -19t-46.5 -51.5t-22 -66t-6.5 -71.5zM72 -49l-31 21l57 84q-55 65 -55 186q0 107 51.5 179.5t152.5 72.5q73 0 121 -39 l54 79l31 -22l-57 -84q54 -67 54 -186q0 -106 -52 -178t-152 -72q-73 0 -121 37z"/>
<glyph glyph-name="ugrave" d="M226 556l-121 119h75l94 -119h-48zM236 -8q-156 0 -156 173v321h51v-310q0 -68 26 -103.5t92 -35.5q61 0 123 40v409h52v-486h-52v39q-57 -47 -136 -47z" unicode="ù"/>
<glyph glyph-name="uacute" d="M236 -8q-156 0 -156 173v321h51v-310q0 -68 26 -103.5t92 -35.5q61 0 123 40v409h52v-486h-52v39q-57 -47 -136 -47zM228 556l95 119h75l-122 -119h-48z" unicode="ú"/>
<glyph glyph-name="ucircumflex" d="M236 -8q-156 0 -156 173v321h51v-310q0 -68 26 -103.5t92 -35.5q61 0 123 40v409h52v-486h-52v39q-57 -47 -136 -47zM113 556l120 146h37l119 -146h-49l-90 100l-89 -100h-48z" unicode="û"/>
<glyph glyph-name="udieresis" d="M236 -8q-156 0 -156 173v321h51v-310q0 -68 26 -103.5t92 -35.5q61 0 123 40v409h52v-486h-52v39q-57 -47 -136 -47zM333 578q-16 0 -27 11.5t-11 27.5t11 27t27 11q15 0 26 -11t11 -27t-11 -27.5t-26 -11.5zM170 578q-15 0 -26 11.5t-11 27.5t11 27t26 11q16 0 27 -11 t11 -27t-11 -27.5t-27 -11.5z" unicode="ü"/>
<glyph glyph-name="yacute" horiz-adv-x="433" unicode="ý" d="M196 556l95 119h75l-122 -119h-48zM87 -188q-32 0 -51 8v42q21 -7 49 -7q40 0 62.5 26t36.5 73l15 49l-181 483h55l153 -414l136 414h52l-188 -554q-21 -63 -52.5 -91.5t-86.5 -28.5z"/>
<glyph glyph-name="thorn" horiz-adv-x="504" unicode="þ" d="M240 38q83 0 123 58t40 147q0 91 -37 148t-120 57q-61 0 -111 -44v-336q48 -30 105 -30zM83 -180v860h52v-234q17 18 49 33t72 15q102 0 152 -69.5t50 -181.5q0 -110 -54.5 -180.5t-154.5 -70.5q-63 0 -114 35v-207h-52z"/>
<glyph glyph-name="OE" horiz-adv-x="814" unicode="Œ" d="M359 36q48 0 80 8v532q-42 6 -72 6q-65 0 -112.5 -22t-74 -61t-39 -85.5t-12.5 -102.5t11 -102.5t36 -86.5t72 -63t111 -23zM353 -8q-75 0 -131.5 27t-88 73.5t-46.5 101t-15 117.5q0 59 15 113t47 101t90 75t135 28q47 0 89 -5h305v-46h-261v-217h224v-45h-224v-269h261 v-46h-294q-59 -8 -106 -8z"/>
<glyph glyph-name="oe" horiz-adv-x="819" unicode="œ" d="M604 450q-54 0 -97 -34t-54 -120h273v5q0 62 -32 105.5t-90 43.5zM247 35q44 0 75 19t46.5 51.5t22 65.5t6.5 71q0 54 -11 97t-46.5 77t-93.5 34q-43 0 -74 -19t-46.5 -51.5t-22 -66t-6.5 -71.5q0 -30 3.5 -57.5t14 -55.5t27 -48t43.5 -33t62 -13zM246 -8 q-102 0 -152.5 69t-50.5 181q0 107 51.5 179.5t152.5 72.5q134 0 178 -128q23 61 69.5 94.5t110.5 33.5q88 0 131.5 -61.5t43.5 -143.5q0 -8 -2 -34h-328v-12q0 -93 43 -150t129 -57q72 0 130 30v-46q-54 -28 -132 -28q-149 0 -197 128q-45 -128 -177 -128z"/>
<glyph glyph-name="Scaron" horiz-adv-x="459" unicode="Š" d="M215 -8q-92 0 -160 29v49q70 -32 153 -32q63 0 102.5 30.5t39.5 90.5q0 53 -33 82.5t-119 68.5q-32 15 -50.5 26t-41.5 30.5t-33.5 47t-10.5 63.5q0 73 49.5 113.5t132.5 40.5q79 0 138 -27v-48q-58 29 -136 29q-61 0 -96 -28.5t-35 -79.5q0 -47 28 -71.5t101 -57.5 q31 -14 46 -21.5t41.5 -25t39.5 -34.5t24 -45t11 -61q0 -74 -52.5 -121.5t-138.5 -47.5zM212 681l-117 150h50l88 -103l89 103h49l-119 -150h-40z"/>
<glyph glyph-name="scaron" horiz-adv-x="383" unicode="š" d="M177 -8q-83 0 -135 27v46q58 -29 128 -29q119 0 119 93q0 22 -6.5 37t-25.5 27t-32 17.5t-47 18.5q-64 23 -97 54t-33 83q0 63 41.5 95.5t111.5 32.5q65 0 116 -23v-47q-47 26 -115 26q-49 0 -76 -21t-27 -60q0 -36 25 -56t76 -38q33 -12 52.5 -21t43 -25.5t35 -41 t11.5 -56.5q0 -63 -45.5 -101t-119.5 -38zM166 556l-117 150h50l88 -103l89 103h49l-119 -150h-40z"/>
<glyph glyph-name="Ydieresis" horiz-adv-x="473" unicode="Ÿ" d="M318 703q-16 0 -27 11.5t-11 27.5t11 27t27 11q15 0 26 -11t11 -27t-11 -27.5t-26 -11.5zM155 703q-15 0 -26 11.5t-11 27.5t11 27t26 11q16 0 27 -11t11 -27t-11 -27.5t-27 -11.5zM209 0v246l-200 376h60l170 -323l168 323h57l-201 -376v-246h-54z"/>
<glyph glyph-name="circumflex" horiz-adv-x="500" unicode="ˆ" d="M112 556l120 146h37l119 -146h-49l-90 100l-89 -100h-48z"/>
<glyph glyph-name="tilde" horiz-adv-x="500" unicode="˜" d="M146 573l-29 25q39 51 92 51q23 0 51 -14t43 -14q28 0 56 34l28 -26q-40 -51 -93 -51q-21 0 -48.5 14t-44.5 14q-31 0 -55 -33z"/>
<glyph glyph-name="uni0394" horiz-adv-x="648" unicode="Δ" d="M324 604l-217 -559h433zM31 0l270 680h46l270 -680h-586z"/>
<glyph glyph-name="uni03BC" d="M81 -180v666h52v-318q0 -131 117 -131q61 0 123 40v409h52v-486h-52v39q-57 -47 -136 -47q-38 0 -67 14t-40 38h-2q5 -35 5 -91v-133h-52z" unicode="μ"/>
<glyph glyph-name="pi" horiz-adv-x="585" unicode="π" d="M501 -8q-60 0 -88 32t-28 103v315h-191v-442h-53v442h-116v44h545v-44h-132v-310q0 -51 17 -73t56 -22q33 0 57 12v-45q-29 -12 -67 -12z"/>
<glyph glyph-name="endash" horiz-adv-x="516" unicode="–" d="M56 256v43h404v-43h-404z"/>
<glyph glyph-name="emdash" horiz-adv-x="818" unicode="—" d="M56 256v43h706v-43h-706z"/>
<glyph glyph-name="quoteleft" horiz-adv-x="207" unicode="‘" d="M71 473q-5 30 -5 54q0 92 76 161l28 -23q-48 -55 -48 -131q0 -31 7 -61h-58z"/>
<glyph glyph-name="quotesinglbase" horiz-adv-x="208" unicode="‚" d="M135 85q5 -30 5 -54q0 -92 -76 -161l-28 23q48 55 48 131q0 31 -7 61h58z"/>
<glyph glyph-name="quotedblleft" horiz-adv-x="353" unicode="“" d="M71 473q-5 30 -5 54q0 92 76 161l28 -23q-48 -55 -48 -131q0 -31 7 -61h-58zM216 473q-5 30 -5 54q0 92 76 161l28 -23q-48 -55 -48 -131q0 -31 7 -61h-58z"/>
<glyph glyph-name="quotedblright" horiz-adv-x="353" unicode="”" d="M135 679q5 -30 5 -54q0 -92 -76 -161l-28 23q48 55 48 131q0 31 -7 61h58zM281 679q5 -30 5 -54q0 -92 -76 -161l-28 23q48 55 48 131q0 31 -7 61h58z"/>
<glyph glyph-name="dagger" horiz-adv-x="528" unicode="†" d="M57 397v46h181v237h52v-237h181v-46h-181v-577h-52v577h-181z"/>
<glyph glyph-name="daggerdbl" horiz-adv-x="528" unicode="‡" d="M57 397v46h181v237h52v-237h181v-46h-181v-291h181v-47h-181v-239h-52v239h-181v47h181v291h-181z"/>
<glyph glyph-name="ellipsis" horiz-adv-x="606" unicode="…" d="M117 -8q-18 0 -30.5 12.5t-12.5 30.5t12.5 30t30.5 12q17 0 29.5 -12t12.5 -30t-12.5 -30.5t-29.5 -12.5zM302 -8q-18 0 -30.5 12.5t-12.5 30.5t12.5 30t30.5 12q17 0 29.5 -12t12.5 -30t-12.5 -30.5t-29.5 -12.5zM487 -8q-18 0 -30.5 12.5t-12.5 30.5t12.5 30t30.5 12 q17 0 29.5 -12t12.5 -30t-12.5 -30.5t-29.5 -12.5z"/>
<glyph glyph-name="perthousand" horiz-adv-x="1187" unicode="‰" d="M172 -23l420 666h48l-421 -666h-47zM1000 31q50 0 76.5 38t26.5 90q0 50 -26.5 88.5t-76.5 38.5q-52 0 -79 -37.5t-27 -89.5q0 -50 27.5 -89t78.5 -39zM1000 -8q-71 0 -113.5 48.5t-42.5 118.5t42.5 118t113.5 48q70 0 111.5 -48t41.5 -118t-41.5 -118.5t-111.5 -48.5z M619 31q50 0 76.5 38t26.5 90q0 50 -26.5 88.5t-76.5 38.5q-52 0 -79 -37.5t-27 -89.5q0 -50 27.5 -89t78.5 -39zM619 -8q-71 0 -113.5 48.5t-42.5 118.5t42.5 118t113.5 48q70 0 111.5 -48t41.5 -118t-41.5 -118.5t-111.5 -48.5zM190 336q50 0 76.5 38t26.5 90 q0 51 -26.5 89t-76.5 38q-51 0 -78.5 -38t-27.5 -89q0 -50 28 -89t78 -39zM190 297q-71 0 -113.5 49t-42.5 118q0 70 42.5 118.5t113.5 48.5q70 0 111.5 -48.5t41.5 -117.5q0 -71 -41.5 -119.5t-111.5 -48.5z"/>
<glyph glyph-name="guilsinglleft" horiz-adv-x="291" unicode="‹" d="M188 56l-138 189l138 189h56l-138 -189l138 -189h-56z"/>
<glyph glyph-name="guilsinglright" horiz-adv-x="291" unicode="›" d="M102 435l138 -189l-138 -189h-56l138 189l-138 189h56z"/>
<glyph glyph-name="fraction" horiz-adv-x="159" unicode="⁄" d="M-167 -36l423 679h48l-422 -679h-49z"/>
<glyph glyph-name="Euro" horiz-adv-x="591" unicode="€" d="M51 351v42h79q20 109 86.5 173.5t176.5 64.5q73 0 127 -23v-52q-58 28 -121 28q-89 0 -142.5 -50.5t-69.5 -140.5h176v-42h-182q-2 -16 -2 -48q0 -27 3 -49h182v-42h-176q19 -82 73.5 -127.5t140.5 -45.5q75 0 131 29v-50q-53 -26 -136 -26q-107 0 -176 58.5t-90 161.5 h-80v42h74q-2 32 -2 49q0 32 2 48h-74z"/>
<glyph glyph-name="trademark" horiz-adv-x="690" unicode="™" d="M125 344v245h-80v34h200v-33h-81v-246h-39zM303 344l29 279h48l63 -176q13 -39 19 -64h2q8 34 19 65l66 175h48l29 -279h-39l-18 174q-4 36 -4 63h-1q-8 -35 -21 -70l-64 -167h-36l-59 163q-17 49 -22 74h-2q0 -37 -3 -64l-17 -173h-37z"/>
<glyph glyph-name="partialdiff" horiz-adv-x="512" unicode="∂" d="M231 37q55 0 93 35t53.5 87.5t15.5 118.5v22q-65 57 -146 57q-68 0 -106.5 -44t-38.5 -118q0 -70 33.5 -114t95.5 -44zM226 -8q-84 0 -131.5 59t-47.5 139q0 99 53 155t143 56q40 0 82 -15t68 -36q-5 149 -52.5 221t-156.5 72q-30 0 -60 -8v46q36 8 65 8q58 0 103 -18.5 t74 -50.5t48 -79t26.5 -101t7.5 -120q0 -161 -57 -244.5t-165 -83.5z"/>
<glyph glyph-name="product" horiz-adv-x="835" unicode="∏" d="M182 -174v880h-109v44h680v-44h-110v-880h-52v880h-357v-880h-52z"/>
<glyph glyph-name="summation" horiz-adv-x="590" unicode="∑" d="M68 -134v42l272 400l-272 400v42h463v-46h-399l271 -396l-271 -396h399v-46h-463z"/>
<glyph glyph-name="minus" horiz-adv-x="512" unicode="−" d="M58 232v44h395v-44h-395z"/>
<glyph glyph-name="radical" horiz-adv-x="565" unicode="√" d="M260 0l-125 321h-87v42h124l114 -301l195 618h52l-221 -680h-52z"/>
<glyph glyph-name="infinity" horiz-adv-x="866" unicode="∞" d="M664 163q49 0 82 30t33 70q0 41 -32.5 69.5t-84.5 28.5q-35 0 -78 -23t-115 -76q75 -55 118.5 -77t76.5 -22zM205 163q58 0 190 97q-76 56 -115 78.5t-77 22.5q-52 0 -85 -29t-33 -70q0 -44 34.5 -71.5t85.5 -27.5zM663 120q-45 0 -93 23t-139 90q-91 -68 -137.5 -90.5 t-91.5 -22.5q-75 0 -120 40.5t-45 98.5q0 61 48.5 103.5t118.5 42.5q47 0 94.5 -24.5t134.5 -90.5q86 65 136.5 90t95.5 25q75 0 118 -40t43 -102q0 -59 -48 -101t-115 -42z"/>
<glyph glyph-name="approxequal" horiz-adv-x="561" unicode="≈" d="M80 280l-22 36q58 49 123 49q46 0 102 -19t94 -19q56 0 106 40l20 -38q-54 -48 -129 -48q-46 0 -103.5 19t-92.5 19q-51 0 -98 -39zM80 138l-22 36q58 49 123 49q46 0 102 -19t94 -19q56 0 106 40l20 -38q-54 -48 -129 -48q-46 0 -103.5 19t-92.5 19q-50 0 -98 -39z"/>
<glyph glyph-name="notequal" horiz-adv-x="584" unicode="≠" d="M49 313v42h287l79 129l38 -22l-66 -107h148v-42h-174l-75 -122h249v-42h-275l-92 -150l-36 20l79 130h-162v42h187l75 122h-262z"/>
<glyph glyph-name="lessequal" horiz-adv-x="580" unicode="≤" d="M77 -99v45h427v-45h-427zM501 32l-425 207v37l425 207v-50l-369 -176l369 -176v-49z"/>
<glyph glyph-name="greaterequal" horiz-adv-x="580" unicode="≥" d="M501 -54v-45h-427v45h427zM502 239l-425 -207v49l369 176l-369 176v50l425 -207v-37z"/>
<glyph glyph-name="dotmath" horiz-adv-x="572" unicode="⋅" d="M286 246q-19 0 -32.5 13t-13.5 32t13.5 32t32.5 13t32 -13t13 -32t-13 -32t-32 -13z"/>
<glyph glyph-name="lozenge" horiz-adv-x="597" unicode="◊" d="M114 313l183 -266l186 250l-182 268zM279 -8l-224 320l230 311h31l227 -325l-230 -306h-34z"/>
</font>
</defs>
</svg>
