<?xml version="1.0" encoding="UTF-8" standalone="no"?>
<!DOCTYPE svg  PUBLIC '-//W3C//DTD SVG 1.1//EN'  'http://www.w3.org/Graphics/SVG/1.1/DTD/svg11.dtd'>
<svg xmlns="http://www.w3.org/2000/svg">
<defs>
<font id="MiloOT-Bold" horiz-adv-x="549">
<font-face underline-position="-10" font-weight="700" descent="-200" panose-1="2 11 8 4 3 1 1 2 1 2" units-per-em="1000" unicode-range="U+0020-25CA" bbox="-183 -250 1269 879" x-height="491" underline-thickness="80" font-family="MiloOT" ascent="800" cap-height="623"/>
<missing-glyph horiz-adv-x="1000"/>
<glyph glyph-name=".notdef" horiz-adv-x="1000"/>
<glyph glyph-name=".null" horiz-adv-x="0"/>
<glyph glyph-name=".null" horiz-adv-x="0"/>
<glyph glyph-name="nonmarkingreturn" horiz-adv-x="333"/>
<glyph glyph-name="space" horiz-adv-x="251" unicode=" "/>
<glyph glyph-name="exclam" horiz-adv-x="299" unicode="!" d="M95 201l-25 422h158l-25 -422h-108zM149 -8q-35 0 -58.5 23.5t-23.5 56.5t23.5 56t58.5 23t58.5 -23t23.5 -56q0 -34 -23.5 -57t-58.5 -23z"/>
<glyph glyph-name="quotedbl" horiz-adv-x="400" unicode='&quot;' d="M241 436l-15 244h138l-28 -244h-95zM64 436l-28 244h138l-15 -244h-95z"/>
<glyph glyph-name="numbersign" horiz-adv-x="526" unicode="#" d="M215 219h84l14 89h-85zM92 0l19 125h-87l16 96h85l13 84h-85l15 96h85l18 121h92l-19 -121h80l19 121h92l-19 -121h85l-15 -96h-85l-12 -84h85l-15 -96h-84l-19 -125h-92l19 125h-80l-19 -125h-92z"/>
<glyph glyph-name="dollar" horiz-adv-x="495" unicode="$" d="M188 -101v95q-81 4 -144 31v119q90 -41 157 -41q104 0 104 67q0 16 -5 27t-20 20.5t-26 15t-40 16.5t-46 18q-58 25 -92.5 65t-34.5 110q0 71 40.5 114t110.5 56v91h104v-88q57 -5 111 -25v-117q-66 33 -142 33q-88 0 -88 -59q0 -12 5.5 -22t12 -16.5t22.5 -14.5t26 -12 t33 -13q41 -15 64 -27t51.5 -34t42 -55t13.5 -78q0 -70 -42 -115.5t-114 -60.5v-100h-103z"/>
<glyph glyph-name="percent" horiz-adv-x="894" unicode="%" d="M188 -37l417 680h94l-417 -680h-94zM684 73q32 0 49.5 26.5t17.5 64.5q0 39 -17.5 65.5t-49.5 26.5q-33 0 -51 -26.5t-18 -65.5q0 -38 18 -64.5t51 -26.5zM684 -8q-82 0 -131 50t-49 122t49 122t131 50t130 -50t48 -121q0 -72 -48.5 -122.5t-129.5 -50.5zM213 367 q32 0 49.5 26.5t17.5 65.5q0 38 -17.5 64.5t-49.5 26.5q-33 0 -51 -27t-18 -65t18 -64.5t51 -26.5zM213 286q-82 0 -131 50.5t-49 122.5t49 122t131 50t130 -50t48 -121q0 -73 -48 -123.5t-130 -50.5z"/>
<glyph glyph-name="ampersand" horiz-adv-x="636" unicode="&amp;" d="M258 91q50 0 96 32l-134 149q-60 -40 -60 -98q0 -37 26.5 -60t71.5 -23zM268 393q78 43 78 93q0 24 -17 41t-45 17q-30 0 -48 -16.5t-18 -43.5q0 -38 50 -91zM254 -8q-107 0 -165.5 47.5t-58.5 124.5q0 59 31.5 100.5t98.5 77.5q-65 76 -65 138q0 69 53 110t137 41 q82 0 131 -39.5t49 -100.5q0 -48 -33.5 -86.5t-101.5 -77.5l108 -118q28 47 40 110l110 -18q-17 -95 -75 -172q39 -34 68 -34q17 0 34 7v-97q-35 -13 -72 -13q-66 0 -117 54q-71 -54 -172 -54z"/>
<glyph glyph-name="quotesingle" horiz-adv-x="217" unicode="&apos;" d="M60 436l-22 244h141l-22 -244h-97z"/>
<glyph glyph-name="parenleft" horiz-adv-x="344" unicode="(" d="M215 -141q-72 70 -123.5 174t-51.5 236q0 129 50.5 234t124.5 177h128q-161 -175 -161 -409q0 -241 161 -412h-128z"/>
<glyph glyph-name="parenright" horiz-adv-x="344" unicode=")" d="M1 -141q161 171 161 412q0 236 -161 409h129q73 -71 123.5 -176t50.5 -235q0 -132 -51 -236t-123 -174h-129z"/>
<glyph glyph-name="asterisk" horiz-adv-x="486" unicode="*" d="M169 303l-84 59l88 104l-131 36l34 93l121 -49l-7 134h107l-7 -134l121 49l34 -93l-131 -36l87 -104l-84 -59l-74 115z"/>
<glyph glyph-name="plus" horiz-adv-x="561" unicode="+" d="M224 0v200h-183v102h183v189h113v-189h183v-102h-183v-200h-113z"/>
<glyph glyph-name="comma" horiz-adv-x="273" unicode="," d="M87 -147l-61 50q32 36 43.5 65.5t11.5 76.5q0 42 -12 85h137q6 -34 6 -71q0 -112 -125 -206z"/>
<glyph glyph-name="hyphen" horiz-adv-x="331" unicode="-" d="M48 230v103h233v-103h-233z"/>
<glyph glyph-name="period" horiz-adv-x="265" unicode="." d="M132 -8q-36 0 -59.5 24t-23.5 57t23.5 56t59.5 23t59.5 -23t23.5 -56t-23.5 -57t-59.5 -24z"/>
<glyph glyph-name="slash" horiz-adv-x="445" unicode="/" d="M11 -133l293 813h128l-293 -813h-128z"/>
<glyph glyph-name="zero" horiz-adv-x="583" unicode="0" d="M292 94q57 0 86.5 43.5t29.5 108.5t-29.5 108.5t-86.5 43.5t-87 -44t-30 -108q0 -65 30 -108.5t87 -43.5zM292 -8q-117 0 -186 73t-69 180q0 105 69.5 179.5t185.5 74.5q118 0 186 -73t68 -180q0 -105 -68.5 -179.5t-185.5 -74.5z"/>
<glyph glyph-name="one" horiz-adv-x="368" unicode="1" d="M154 0v366q-53 -26 -130 -40v105q37 5 84 22.5t75 37.5h107v-491h-136z"/>
<glyph glyph-name="two" horiz-adv-x="478" unicode="2" d="M35 0v85q53 32 81 50.5t73.5 53.5t67.5 69.5t22 68.5q0 69 -85 69q-68 0 -146 -38v102q82 39 173 39q98 0 149 -42.5t51 -117.5q0 -39 -17.5 -75.5t-49.5 -67t-62.5 -52.5t-71.5 -47q50 4 73 4h153v-101h-411z"/>
<glyph glyph-name="three" horiz-adv-x="468" unicode="3" d="M196 -151q-97 0 -158 22v106q62 -25 135 -25q54 0 85 22.5t31 63.5q0 95 -138 95q-24 0 -42 -1v99q167 0 167 91q0 74 -93 74q-71 0 -134 -25v104q68 24 157 24q96 0 153 -43t57 -124q0 -51 -33 -86.5t-89 -51.5v-2q60 -11 99 -52.5t39 -98.5q0 -91 -67 -141.5 t-169 -50.5z"/>
<glyph glyph-name="four" horiz-adv-x="594" unicode="4" d="M155 100h172v246h-2zM327 -141v141h-299v94l286 397h146v-391h98v-100h-98v-141h-133z"/>
<glyph glyph-name="five" horiz-adv-x="475" unicode="5" d="M193 -151q-78 0 -137 18v106q51 -20 117 -20q61 0 96.5 27.5t35.5 76.5q0 101 -130 101q-56 0 -107 -12l12 345h331v-104h-224l-5 -131q18 3 44 3q98 0 157 -50t59 -143q0 -101 -69 -159t-180 -58z"/>
<glyph glyph-name="six" d="M281 95q44 0 68.5 30t24.5 83q0 49 -24 75t-68 26q-57 0 -102 -32q-1 -6 -1 -20q0 -78 28.5 -120t73.5 -42zM289 -8q-120 0 -184.5 77.5t-64.5 218.5q0 159 79.5 251t209.5 92q88 0 140 -18v-111q-56 25 -132 25q-65 0 -107 -45t-46 -116q20 17 57 29t70 12 q95 0 147.5 -51t52.5 -142q0 -96 -59.5 -159t-162.5 -63z" unicode="6"/>
<glyph glyph-name="seven" horiz-adv-x="477" unicode="7" d="M99 -141q50 295 198 526h-269v106h420v-87q-167 -235 -207 -545h-142z"/>
<glyph glyph-name="eight" horiz-adv-x="537" unicode="8" d="M277 377q20 10 33.5 19t27 29t13.5 44q0 31 -22.5 49.5t-56.5 18.5t-57.5 -18.5t-23.5 -48.5q0 -19 6.5 -33.5t21.5 -26t25.5 -17.5t32.5 -16zM270 88q39 0 65 20.5t26 58.5q0 22 -8.5 39t-27 30t-32 20t-37.5 17q-26 -15 -40.5 -25.5t-28.5 -32.5t-14 -49q0 -36 28 -57 t69 -21zM268 -8q-105 0 -167.5 47.5t-62.5 122.5q0 99 125 161q-56 30 -82 60t-26 82q0 71 61 118.5t150 47.5q98 0 158 -42.5t60 -115.5q0 -84 -112 -141q63 -29 95 -65t32 -100q0 -81 -65.5 -128t-165.5 -47z"/>
<glyph glyph-name="nine" d="M268 176q56 0 102 31v24q0 79 -27.5 121.5t-72.5 42.5t-70 -29t-25 -83q0 -50 25 -78.5t68 -28.5zM220 -151q-85 0 -140 21v107q56 -24 128 -24t111.5 44t44.5 122q-21 -18 -56.5 -30.5t-67.5 -12.5q-97 0 -149.5 52.5t-52.5 144.5q0 97 60.5 161.5t163.5 64.5 q122 0 184.5 -76.5t62.5 -220.5q0 -169 -76 -261t-213 -92z" unicode="9"/>
<glyph glyph-name="colon" horiz-adv-x="284" unicode=":" d="M142 336q-36 0 -59.5 23.5t-23.5 56.5t23.5 56.5t59.5 23.5t59 -23t23 -57t-23 -57t-59 -23zM142 -8q-36 0 -59.5 24t-23.5 57t23.5 56t59.5 23t59 -23t23 -56q0 -34 -23.5 -57.5t-58.5 -23.5z"/>
<glyph glyph-name="semicolon" horiz-adv-x="285" unicode=";" d="M143 336q-36 0 -59.5 23.5t-23.5 56.5t23.5 56.5t59.5 23.5t59.5 -23.5t23.5 -56.5t-23.5 -56.5t-59.5 -23.5zM91 -147l-61 50q32 36 43.5 65.5t11.5 76.5q0 42 -12 85h137q6 -34 6 -71q0 -112 -125 -206z"/>
<glyph glyph-name="less" horiz-adv-x="409" unicode="&lt;" d="M294 21l-264 232l261 239l77 -79l-174 -156l176 -153z"/>
<glyph glyph-name="equal" horiz-adv-x="478" unicode="=" d="M39 306v102h400v-102h-400zM39 119v101h400v-101h-400z"/>
<glyph glyph-name="greater" horiz-adv-x="409" unicode="&gt;" d="M118 21l-77 78l174 157l-176 153l76 83l264 -233z"/>
<glyph glyph-name="question" horiz-adv-x="413" unicode="?" d="M167 -8q-35 0 -58.5 23.5t-23.5 56.5t23.5 56t58.5 23t58.5 -23t23.5 -56t-23.5 -56.5t-58.5 -23.5zM106 202q-7 33 -7 51q0 36 15 63t36.5 43.5t42.5 31t36 33t15 42.5q0 28 -21.5 44.5t-62.5 16.5q-57 0 -116 -26v107q63 23 139 23q89 0 144 -38.5t55 -112.5 q0 -34 -12 -61t-30 -43.5t-38.5 -33t-38.5 -29t-30 -31.5t-12 -42q0 -16 6 -38h-121z"/>
<glyph glyph-name="at" horiz-adv-x="804" unicode="@" d="M377 172q41 0 66 49l26 165q-17 5 -36 5q-44 0 -70.5 -47t-26.5 -116q0 -56 41 -56zM392 -87q-161 0 -255.5 91.5t-94.5 243.5q0 161 108.5 275t273.5 114q163 0 255 -89t92 -217q0 -108 -55.5 -175t-144.5 -67q-92 0 -113 72q-19 -33 -51 -54.5t-71 -21.5 q-49 0 -79 35.5t-30 96.5q0 112 59.5 183.5t157.5 71.5q58 0 136 -26l-35 -216q-2 -18 -2 -25q0 -44 43 -44q40 0 69 45t29 119q0 113 -70 175t-191 62t-204.5 -85t-83.5 -228q0 -126 68 -193t197 -67q84 0 159 29v-77q-68 -28 -167 -28z"/>
<glyph glyph-name="A" horiz-adv-x="636" unicode="A" d="M10 0l234 623h153l228 -623h-149l-40 124h-243l-42 -124h-141zM229 234h171l-52 160q-25 77 -31 102h-2q-12 -42 -32 -102z"/>
<glyph glyph-name="B" horiz-adv-x="588" unicode="B" d="M216 369h82q88 0 88 76q0 71 -87 71h-83v-147zM216 107h85q94 0 94 83q0 85 -93 85h-86v-168zM79 0v623h237q99 0 153.5 -43t54.5 -116q0 -55 -28.5 -91t-69.5 -47v-2q53 -12 85 -48.5t32 -94.5q0 -85 -59.5 -133t-161.5 -48h-243z"/>
<glyph glyph-name="C" d="M344 -8q-145 0 -223.5 86.5t-78.5 225.5q0 142 77 234.5t223 92.5q85 0 154 -28v-119q-53 32 -139 32q-83 0 -126.5 -54t-43.5 -158q0 -94 46 -145.5t128 -51.5q81 0 142 37v-122q-68 -30 -159 -30z" unicode="C"/>
<glyph glyph-name="D" horiz-adv-x="644" unicode="D" d="M216 112h62q102 0 141.5 52.5t39.5 146.5t-38 147.5t-137 53.5h-68v-400zM79 0v622h217q81 0 142 -25.5t95.5 -70t51.5 -98.5t17 -117q0 -48 -10 -91t-33 -84t-57.5 -70.5t-88 -47.5t-120.5 -18h-214z"/>
<glyph glyph-name="E" horiz-adv-x="510" unicode="E" d="M79 0v623h380v-113h-243v-134h207v-104h-207v-159h243v-113h-380z"/>
<glyph glyph-name="F" horiz-adv-x="500" unicode="F" d="M79 0v623h382v-113h-245v-145h218v-104h-218v-261h-137z"/>
<glyph glyph-name="G" horiz-adv-x="639" unicode="G" d="M358 -8q-151 0 -233.5 85t-82.5 227q0 141 80.5 234t239.5 93q102 0 175 -32v-117q-77 36 -168 36q-90 0 -136 -55t-46 -159q0 -100 46 -151t132 -51q39 0 72 11v123h-97v103h229v-310q-105 -37 -211 -37z"/>
<glyph glyph-name="H" horiz-adv-x="690" unicode="H" d="M79 0v623h137v-248h258v248h137v-623h-137v265h-258v-265h-137z"/>
<glyph glyph-name="I" horiz-adv-x="301" unicode="I" d="M82 0v623h137v-623h-137z"/>
<glyph glyph-name="J" horiz-adv-x="307" unicode="J" d="M58 -172q-53 0 -98 14v104q32 -8 59 -8q71 0 71 65v620h137v-630q0 -83 -46.5 -124t-122.5 -41z"/>
<glyph glyph-name="K" horiz-adv-x="599" unicode="K" d="M531 -8q-44 0 -76 16t-65 60l-174 221v-289h-137v623h137v-274l209 274h147l-229 -287l164 -206q24 -31 54 -31q10 0 15 1v-102q-21 -6 -45 -6z"/>
<glyph glyph-name="L" horiz-adv-x="479" unicode="L" d="M79 0v623h137v-513h228v-110h-365z"/>
<glyph glyph-name="M" horiz-adv-x="849" unicode="M" d="M54 0l81 623h167l96 -367q15 -56 26 -129h1q14 81 26 128l95 368h166l83 -623h-131l-41 337q-3 25 -7 72t-4 49h-2q-12 -74 -23 -115l-93 -343h-151l-91 342q-18 67 -25 117h-2q-8 -108 -10 -127l-39 -332h-122z"/>
<glyph glyph-name="N" horiz-adv-x="690" unicode="N" d="M80 0v623h145l210 -337q32 -53 54 -101h3q-3 42 -3 95v343h122v-623h-147l-210 337q-27 44 -53 96h-2q3 -81 3 -89v-344h-122z"/>
<glyph glyph-name="O" horiz-adv-x="674" unicode="O" d="M337 105q73 0 112 54t39 153t-39 152.5t-112 53.5t-111.5 -53.5t-38.5 -153.5q0 -99 38.5 -152.5t111.5 -53.5zM337 -8q-141 0 -218 90t-77 229q0 88 32 159.5t100.5 116t162.5 44.5q141 0 218 -90t77 -229q0 -136 -77.5 -228t-217.5 -92z"/>
<glyph glyph-name="P" horiz-adv-x="558" unicode="P" d="M216 319h74q48 0 72 26t24 73q0 46 -24 71.5t-72 25.5h-74v-196zM79 0v623h233q98 0 155.5 -56.5t57.5 -148.5q0 -89 -58 -145t-159 -56h-92v-217h-137z"/>
<glyph glyph-name="Q" horiz-adv-x="675" unicode="Q" d="M337 105q73 0 112 54t39 153t-39 152.5t-112 53.5t-111.5 -53.5t-38.5 -153.5q0 -99 38.5 -152.5t111.5 -53.5zM481 -169q-167 0 -197 166q-117 16 -179.5 102t-62.5 212q0 88 32 159.5t100.5 116t162.5 44.5q141 0 218 -90t77 -229q0 -114 -54.5 -198.5t-155.5 -109.5 q4 -41 23 -57.5t53 -16.5q48 0 88 16v-97q-49 -18 -105 -18z"/>
<glyph glyph-name="R" horiz-adv-x="600" unicode="R" d="M216 343h80q45 0 68 23.5t23 62.5q0 86 -91 86h-80v-172zM536 -8q-48 0 -81 18t-65 67l-111 172h-63v-249h-137v623h243q96 0 150 -50.5t54 -137.5q0 -51 -28 -94.5t-87 -66.5l98 -144q21 -31 55 -31q12 0 18 1v-102q-21 -6 -46 -6z"/>
<glyph glyph-name="S" horiz-adv-x="498" unicode="S" d="M237 -8q-108 0 -188 35v119q90 -42 163 -42q104 0 104 70q0 16 -4.5 27t-19.5 21t-25.5 15t-42 17.5t-49.5 20.5q-57 26 -91 66.5t-34 111.5q0 88 59 133t158 45q81 0 156 -28v-116q-70 33 -146 33q-91 0 -91 -63q0 -29 21 -43.5t77 -35.5q12 -6 40.5 -19t42 -20 t34.5 -23t31.5 -32.5t18.5 -43.5t8 -61q0 -88 -62 -137.5t-160 -49.5z"/>
<glyph glyph-name="T" horiz-adv-x="505" unicode="T" d="M182 0v510h-166v113h473v-113h-170v-510h-137z"/>
<glyph glyph-name="U" horiz-adv-x="658" unicode="U" d="M333 -8q-120 0 -189 58.5t-69 179.5v393h137v-387q0 -131 121 -131t121 131v387h129v-393q0 -121 -65.5 -179.5t-184.5 -58.5z"/>
<glyph glyph-name="V" horiz-adv-x="598" unicode="V" d="M221 0l-214 623h150l114 -369q21 -68 31 -116h2q18 71 32 116l114 369h142l-220 -623h-151z"/>
<glyph glyph-name="W" horiz-adv-x="851" unicode="W" d="M192 0l-178 623h145l97 -364q19 -73 22 -94h2q9 42 22 88l68 240l-38 130h142l98 -368q13 -45 22 -90h2q12 70 18 93l90 365h133l-177 -623h-139l-93 324h-2l-95 -324h-139z"/>
<glyph glyph-name="X" horiz-adv-x="605" unicode="X" d="M9 0l203 327l-192 296h161l122 -204l114 204h151l-189 -295l213 -328h-161l-143 232l-135 -232h-144z"/>
<glyph glyph-name="Y" horiz-adv-x="565" unicode="Y" d="M213 0v242l-207 381h150l135 -266l130 266h138l-209 -381v-242h-137z"/>
<glyph glyph-name="Z" horiz-adv-x="527" unicode="Z" d="M42 0v90l277 420h-266v113h431v-94l-272 -416h280v-113h-450z"/>
<glyph glyph-name="bracketleft" horiz-adv-x="342" unicode="[" d="M65 -111v791h251v-99h-123v-593h123v-99h-251z"/>
<glyph glyph-name="backslash" horiz-adv-x="444" unicode="\" d="M305 -133l-293 813h129l293 -813h-129z"/>
<glyph glyph-name="bracketright" horiz-adv-x="342" unicode="]" d="M27 -111v99h122v593h-122v99h250v-791h-250z"/>
<glyph glyph-name="asciicircum" horiz-adv-x="584" unicode="^" d="M44 244l201 379h93l201 -379h-122l-125 242l-125 -242h-123z"/>
<glyph glyph-name="underscore" horiz-adv-x="452" unicode="_" d="M-6 -199v102h465v-102h-465z"/>
<glyph glyph-name="grave" horiz-adv-x="500" unicode="`" d="M197 550l-140 143h171l83 -143h-114z"/>
<glyph glyph-name="a" horiz-adv-x="499" unicode="a" d="M227 87q41 0 68 27v92q-8 2 -31 2q-53 0 -78 -15.5t-25 -49.5q0 -56 66 -56zM411 -8q-74 0 -98 58q-17 -25 -51 -41.5t-77 -16.5q-71 0 -113.5 36.5t-42.5 105.5q0 77 59.5 113.5t165.5 36.5q21 0 41 -2v33q0 43 -20.5 61.5t-69.5 18.5q-63 0 -127 -25v103q70 26 150 26 q101 0 151 -41t50 -130v-198q0 -38 32 -38q6 0 18 2v-87q-28 -15 -68 -15z"/>
<glyph glyph-name="b" horiz-adv-x="543" unicode="b" d="M258 95q56 0 84 40t28 111q0 148 -104 148q-42 0 -70 -24v-267q27 -8 62 -8zM256 -8q-107 0 -194 34v654h134v-225q42 44 116 44q102 0 151 -68.5t49 -178.5q0 -111 -66.5 -185.5t-189.5 -74.5z"/>
<glyph glyph-name="c" horiz-adv-x="437" unicode="c" d="M279 -8q-122 0 -185 65t-63 181q0 115 63 188t181 73q63 0 122 -21v-104q-51 23 -109 23q-118 0 -118 -159q0 -70 32 -106.5t90 -36.5q68 0 113 27v-106q-55 -24 -126 -24z"/>
<glyph glyph-name="d" horiz-adv-x="543" unicode="d" d="M274 97q46 0 73 27v260q-28 14 -62 14q-56 0 -84.5 -40t-28.5 -112q0 -149 102 -149zM230 -8q-99 0 -149 66.5t-50 181.5q0 111 62 185t165 74q52 0 89 -17v198h133v-680h-133v38q-42 -46 -117 -46z"/>
<glyph glyph-name="e" horiz-adv-x="506" unicode="e" d="M172 303h170v5q0 38 -20.5 65.5t-57.5 27.5q-39 0 -63.5 -25.5t-28.5 -72.5zM285 -8q-129 0 -191.5 68t-62.5 185q0 109 61.5 181.5t171.5 72.5t159.5 -64.5t49.5 -163.5q0 -25 -3 -46h-302q2 -65 30.5 -99t96.5 -34q79 0 145 30v-102q-70 -28 -155 -28z"/>
<glyph glyph-name="f" horiz-adv-x="352" unicode="f" d="M93 0v395h-75v96h75v44q0 77 44 115t125 38q48 0 97 -14v-96q-41 9 -63 9q-37 0 -53 -16t-16 -53v-27h113v-96h-113v-395h-134z"/>
<glyph glyph-name="g" horiz-adv-x="525" unicode="g" d="M250 246q39 0 59.5 24.5t20.5 60.5t-20.5 61t-59.5 25t-60 -25t-21 -61q0 -37 21 -61t60 -24zM243 -110q114 0 114 64q0 30 -22 41t-77 13q-37 1 -68 4q-49 -24 -49 -64q0 -58 102 -58zM237 -196q-102 0 -158.5 34t-56.5 93q0 37 26.5 64.5t63.5 41.5q-48 22 -48 76 q0 53 57 81q-77 47 -77 137q0 75 55 121.5t149 46.5q36 0 82 -8h166v-86h-71q29 -32 29 -81q0 -70 -54.5 -114.5t-150.5 -44.5q-26 0 -54 5q-17 -13 -17 -29q0 -25 42 -28l100 -5q167 -7 167 -138q0 -79 -66.5 -122.5t-183.5 -43.5z"/>
<glyph glyph-name="h" d="M62 0v680h131v-228q61 47 135 47q161 0 161 -173v-326h-133v306q0 45 -17.5 66.5t-59.5 21.5t-83 -31v-363h-134z" unicode="h"/>
<glyph glyph-name="i" horiz-adv-x="275" unicode="i" d="M70 0v491h135v-491h-135zM138 557q-35 0 -58 23t-23 55t23 54.5t58 22.5q34 0 57 -22.5t23 -54.5t-23 -55t-57 -23z"/>
<glyph glyph-name="j" horiz-adv-x="292" unicode="j" d="M154 557q-34 0 -57 23t-23 55t23 54.5t57 22.5q35 0 57.5 -22.5t22.5 -54.5t-22.5 -55t-57.5 -23zM49 -188q-43 0 -75 10v100q22 -5 45 -5q35 0 51.5 16.5t16.5 53.5v504h135v-515q0 -82 -46 -123t-127 -41z"/>
<glyph glyph-name="k" horiz-adv-x="510" unicode="k" d="M448 -6q-44 0 -74.5 16t-62.5 60l-115 158v-228h-134v680h134v-396l150 207h142l-167 -222l111 -147q20 -27 47 -27q7 0 15 1v-95q-26 -7 -46 -7z"/>
<glyph glyph-name="l" horiz-adv-x="260" unicode="l" d="M63 0v680h134v-680h-134z"/>
<glyph glyph-name="m" horiz-adv-x="820" unicode="m" d="M62 0v491h131v-40q62 48 141 48t117 -56q70 56 147 56q82 0 122 -47t40 -126v-326h-133v306q0 44 -16.5 66t-57.5 22q-35 0 -80 -27q5 -25 5 -48v-319h-134v308q0 86 -71 86q-34 0 -77 -31v-363h-134z"/>
<glyph glyph-name="n" d="M62 0v491h131v-39q61 47 135 47q161 0 161 -173v-326h-133v306q0 45 -17.5 66.5t-59.5 21.5t-83 -31v-363h-134z" unicode="n"/>
<glyph glyph-name="o" horiz-adv-x="536" unicode="o" d="M269 92q98 0 98 153q0 155 -99 155q-98 0 -98 -155q0 -153 99 -153zM268 -8q-116 0 -176.5 70.5t-60.5 182.5q0 107 61.5 180.5t176.5 73.5q116 0 176 -70.5t60 -183.5q0 -106 -61.5 -179.5t-175.5 -73.5z"/>
<glyph glyph-name="p" horiz-adv-x="543" unicode="p" d="M257 95q113 0 113 151q0 73 -24 110.5t-80 37.5q-42 0 -70 -24v-264q27 -11 61 -11zM62 -180v671h134v-36q40 44 117 44q100 0 149.5 -66t49.5 -181q0 -109 -61.5 -184.5t-165.5 -75.5q-54 0 -89 15v-187h-134z"/>
<glyph glyph-name="q" horiz-adv-x="543" unicode="q" d="M274 97q44 0 73 29v261q-27 11 -63 11q-56 0 -84 -41.5t-28 -110.5q0 -149 102 -149zM347 -180v216q-44 -44 -117 -44q-101 0 -150 67.5t-49 178.5q0 115 65 188t191 73q104 0 193 -34v-645h-133z"/>
<glyph glyph-name="r" horiz-adv-x="374" unicode="r" d="M63 0v491h131v-52q51 60 124 60q21 0 41 -6v-117q-24 6 -52 6q-62 0 -111 -34v-348h-133z"/>
<glyph glyph-name="s" horiz-adv-x="416" unicode="s" d="M197 -8q-99 0 -160 28v99q68 -29 140 -29q81 0 81 51q0 8 -2.5 14t-8 11t-11.5 9t-17 8t-19.5 6.5t-24 7.5t-25.5 8q-115 38 -115 145q0 75 50.5 112t139.5 37q75 0 127 -20v-101q-61 23 -120 23q-71 0 -71 -42q0 -21 17 -32t69 -26q63 -18 101 -52t38 -101 q0 -74 -51.5 -115t-137.5 -41z"/>
<glyph glyph-name="t" horiz-adv-x="371" unicode="t" d="M243 -8q-78 0 -117.5 34t-39.5 111v258h-67v96h70l23 129h108v-129h112v-96h-112v-236q0 -32 13 -46t42 -14q31 0 66 11v-103q-51 -15 -98 -15z"/>
<glyph glyph-name="u" d="M221 -8q-162 0 -162 173v326h134v-306q0 -45 18 -66.5t60 -21.5q40 0 83 31v363h133v-491h-131v39q-59 -47 -135 -47z" unicode="u"/>
<glyph glyph-name="v" horiz-adv-x="494" unicode="v" d="M171 0l-162 491h141l79 -278q5 -17 11.5 -48t8.5 -36h2q1 4 4.5 20.5t7.5 34t7 29.5l78 278h137l-164 -491h-150z"/>
<glyph glyph-name="w" horiz-adv-x="758" unicode="w" d="M168 0l-152 491h136l76 -263q15 -49 24 -94h2q13 54 25 92l48 153l-35 112h136l74 -266q16 -56 23 -91h2q3 13 9.5 44.5t11.5 50.5l65 262h130l-141 -491h-149l-67 233h-2l-70 -233h-146z"/>
<glyph glyph-name="x" horiz-adv-x="499" unicode="x" d="M9 0l161 255l-155 236h153l86 -140l80 140h134l-145 -231l166 -260h-152l-98 164l-95 -164h-135z"/>
<glyph glyph-name="y" horiz-adv-x="499" unicode="y" d="M113 -188q-41 0 -75 9v100q31 -9 59 -9q67 0 84 65l5 20l-173 494h140l104 -337h2l93 337h137l-184 -541q-24 -73 -68 -105.5t-124 -32.5z"/>
<glyph glyph-name="z" horiz-adv-x="449" unicode="z" d="M38 0v82l213 310h-203v99h354v-86l-210 -306h217v-99h-371z"/>
<glyph glyph-name="braceleft" horiz-adv-x="403" unicode="{" d="M257 -111q-48 0 -83.5 32.5t-35.5 91.5v121q0 95 -114 96v110q114 1 114 96v121q0 60 35 91.5t85 31.5h120v-99h-62q-29 0 -40 -17t-11 -51v-106q0 -94 -95 -119v-2q95 -28 95 -126v-105q0 -38 10 -52.5t41 -14.5h62v-99h-121z"/>
<glyph glyph-name="bar" horiz-adv-x="284" unicode="|" d="M85 -250v1000h114v-1000h-114z"/>
<glyph glyph-name="braceright" horiz-adv-x="403" unicode="}" d="M25 -111v99h62q31 0 41 15.5t10 52.5v105q0 97 95 123v2q-47 13 -71 41t-24 81v106q0 35 -11 51t-40 16h-62v99h119q50 0 85.5 -31.5t35.5 -92.5v-120q0 -48 27.5 -72t86.5 -25v-109q-59 -2 -86.5 -25t-27.5 -71v-121q0 -59 -35.5 -91.5t-83.5 -32.5h-121z"/>
<glyph glyph-name="asciitilde" horiz-adv-x="594" unicode="~" d="M109 166l-65 74q77 84 161 84q41 0 94.5 -20.5t89.5 -20.5q47 0 91 48l65 -77q-79 -81 -163 -81q-43 0 -96 20t-86 20q-49 0 -91 -47z"/>
<glyph glyph-name="uni00A0" horiz-adv-x="251" unicode=" "/>
<glyph glyph-name="exclamdown" horiz-adv-x="299" unicode="¡" d="M71 -131l25 421h108l25 -421h-158zM150 340q-35 0 -58.5 23t-23.5 56t23 56.5t59 23.5t59 -23.5t23 -56.5t-23.5 -56t-58.5 -23z"/>
<glyph glyph-name="cent" horiz-adv-x="440" unicode="¢" d="M212 -115v113q-89 16 -135.5 79.5t-46.5 162.5q0 98 46.5 166.5t135.5 85.5v106h102v-101q39 -4 81 -19v-104q-50 23 -108 23q-119 0 -119 -157q0 -71 32 -108t91 -37q67 0 113 27v-106q-44 -18 -90 -22v-109h-102z"/>
<glyph glyph-name="sterling" horiz-adv-x="496" unicode="£" d="M48 0v82q94 51 94 144q0 22 -3 35h-99v94h79q-23 71 -23 107q0 81 57 125t151 44q80 0 128 -19v-106q-44 20 -106 20q-92 0 -92 -77q0 -29 19 -94h156v-94h-142q3 -12 3 -34q0 -39 -17 -71.5t-40 -51.5h247v-104h-412z"/>
<glyph glyph-name="currency" horiz-adv-x="552" unicode="¤" d="M278 147q37 0 58 27.5t21 69.5q0 43 -20.5 71t-58.5 28t-59 -28t-21 -71q0 -42 21 -69.5t59 -27.5zM134 -30l-96 69l75 90q-39 51 -39 115q0 67 40 118l-74 91l95 69l75 -98q31 11 68 11q33 0 66 -10l74 97l97 -69l-74 -90q40 -51 40 -119q0 -64 -39 -117l71 -87l-96 -70 l-72 94q-27 -10 -67 -10q-42 0 -71 11z"/>
<glyph glyph-name="yen" horiz-adv-x="562" unicode="¥" d="M212 0v87h-142v76h142v58h-142v76h111l-177 326h144l136 -268l132 268h142l-178 -326h114v-76h-145v-58h145v-76h-145v-87h-137z"/>
<glyph glyph-name="brokenbar" horiz-adv-x="241" unicode="¦" d="M60 331v419h117v-419h-117zM60 -250v429h117v-429h-117z"/>
<glyph glyph-name="section" horiz-adv-x="476" unicode="§" d="M289 163q27 23 27 53q0 10 -3.5 20.5t-7.5 19t-14 20t-16.5 19t-20.5 20.5t-21 19t-23.5 20.5t-22.5 19.5q-26 -24 -26 -54q0 -25 21.5 -54.5t43 -49t63.5 -53.5zM207 -151q-60 0 -119 18v104q48 -23 108 -23q30 0 46.5 14t16.5 37t-22.5 48.5t-54.5 51.5t-64 55.5 t-54.5 70.5t-22.5 87q0 43 21.5 78t54.5 56q-27 41 -27 90q0 74 48.5 113t129.5 39q63 0 120 -18v-105q-48 24 -109 24q-29 0 -45.5 -14.5t-16.5 -36.5q0 -23 22.5 -48.5t54.5 -51t64.5 -54.5t55 -70t22.5 -86q0 -79 -77 -138q27 -41 27 -90q0 -73 -49 -112t-130 -39z"/>
<glyph glyph-name="dieresis" horiz-adv-x="427" unicode="¨" d="M316 551q-31 0 -52 21t-21 50q0 30 21 50.5t52 20.5t52 -20.5t21 -50.5q0 -29 -21 -50t-52 -21zM113 551q-31 0 -51.5 21t-20.5 50q0 30 20.5 50.5t51.5 20.5t52 -20.5t21 -50.5q0 -29 -21 -50t-52 -21z"/>
<glyph glyph-name="copyright" horiz-adv-x="740" unicode="©" d="M370 42q115 0 190.5 76t75.5 194q0 117 -75.5 193t-190.5 76q-114 0 -189.5 -76t-75.5 -193q0 -118 75 -194t190 -76zM370 -8q-134 0 -229.5 93.5t-95.5 226.5q0 132 95.5 225.5t229.5 93.5t229.5 -93.5t95.5 -225.5q0 -133 -95.5 -226.5t-229.5 -93.5zM382 129 q-82 0 -129 49.5t-47 129.5q0 81 44 135t128 54q51 0 95 -18v-74q-39 18 -76 18q-45 0 -66 -27t-21 -86q0 -106 95 -106q40 0 77 18v-74q-41 -19 -100 -19z"/>
<glyph glyph-name="ordfeminine" horiz-adv-x="422" unicode="ª" d="M194 320q32 0 51 19v71q-13 3 -27 3q-80 0 -80 -50q0 -43 56 -43zM166 244q-58 0 -95 28.5t-37 83.5q0 60 47.5 89t129.5 29q19 0 34 -3v15q0 63 -64 63q-55 0 -106 -19v83q55 19 122 19q72 0 112 -34t40 -97v-147q0 -25 24 -25q9 0 13 1v-73q-28 -13 -55 -13 q-49 0 -70 41q-34 -41 -95 -41z"/>
<glyph glyph-name="guillemotleft" horiz-adv-x="539" unicode="«" d="M374 53l-120 192l120 193h136l-119 -193l119 -192h-136zM152 53l-120 192l120 193h136l-119 -193l119 -192h-136z"/>
<glyph glyph-name="logicalnot" horiz-adv-x="562" unicode="¬" d="M392 41v169h-352v112h476v-281h-124z"/>
<glyph glyph-name="uni00AD" horiz-adv-x="331" unicode="­" d="M48 230v103h233v-103h-233z"/>
<glyph glyph-name="registered" horiz-adv-x="740" unicode="®" d="M327 333h40q49 0 49 44q0 43 -49 43h-40v-87zM370 42q115 0 190.5 76t75.5 194q0 117 -75.5 193t-190.5 76q-114 0 -189.5 -76t-75.5 -193q0 -118 75 -194t190 -76zM370 -8q-134 0 -229.5 93.5t-95.5 226.5q0 132 95.5 225.5t229.5 93.5t229.5 -93.5t95.5 -225.5 q0 -133 -95.5 -226.5t-229.5 -93.5zM522 137q-14 -3 -29 -3q-54 0 -81 45l-58 94h-27v-134h-83v347h137q54 0 86 -28t32 -77q0 -33 -18.5 -58t-48.5 -35l50 -75q11 -19 33 -19h7v-57z"/>
<glyph glyph-name="macron" horiz-adv-x="500" unicode="¯" d="M109 559v95h282v-95h-282z"/>
<glyph glyph-name="degree" horiz-adv-x="346" unicode="°" d="M173 478q27 0 43.5 18t16.5 47q0 28 -16.5 46.5t-43.5 18.5t-43.5 -18.5t-16.5 -46.5q0 -29 16.5 -47t43.5 -18zM173 402q-59 0 -101 41.5t-42 99.5t42 99.5t101 41.5t101 -41.5t42 -99.5t-42 -99.5t-101 -41.5z"/>
<glyph glyph-name="plusminus" horiz-adv-x="589" unicode="±" d="M69 -163v103h453v-103h-453zM239 0v200h-196v102h196v189h114v-189h194v-102h-194v-200h-114z"/>
<glyph glyph-name="twosuperior" horiz-adv-x="295" unicode="²" d="M272 298h-258v63q35 24 51 36t43 35t39 42.5t12 38.5q0 43 -52 43q-41 0 -81 -18v74q54 19 101 19q60 0 98 -24.5t38 -77.5q0 -33 -22 -64t-46 -49.5t-66 -46.5q26 3 54 3h89v-74z"/>
<glyph glyph-name="threesuperior" horiz-adv-x="282" unicode="³" d="M118 293q-54 0 -97 12v70q34 -10 78 -10q60 0 60 35q0 34 -66 34h-33v62h22q69 0 69 34q0 29 -48 29q-42 0 -77 -10v69q40 13 99 13q84 0 115 -44q13 -16 13 -42q0 -52 -62 -72v-1q71 -18 71 -79q0 -50 -43.5 -75t-100.5 -25z"/>
<glyph glyph-name="acute" horiz-adv-x="500" unicode="´" d="M189 550l83 143h170l-139 -143h-114z"/>
<glyph glyph-name="mu" horiz-adv-x="546" unicode="µ" d="M57 -180v671h134v-312q0 -82 77 -82q40 0 83 31v363h134v-491h-131v39q-49 -45 -114 -45q-32 0 -52 13l-2 -1q5 -25 5 -66v-120h-134z"/>
<glyph glyph-name="paragraph" horiz-adv-x="652" unicode="¶" d="M243 -180v388q-87 0 -146 57t-59 149t59.5 150.5t145.5 58.5h375v-104h-74v-699h-106v699h-87v-699h-108z"/>
<glyph glyph-name="periodcentered" horiz-adv-x="245" unicode="·" d="M122 205q-37 0 -62 25t-25 60q0 36 25 60.5t62 24.5q38 0 63 -24.5t25 -60.5q0 -35 -25 -60t-63 -25z"/>
<glyph glyph-name="cedilla" horiz-adv-x="447" unicode="¸" d="M207 -225q-39 0 -68 11v63q30 -11 53 -11q49 0 49 36q0 40 -71 40l34 89h75l-19 -52q32 -7 51 -29t19 -52q0 -45 -33 -70t-90 -25z"/>
<glyph glyph-name="onesuperior" horiz-adv-x="245" unicode="¹" d="M198 298h-100v242q-28 -18 -84 -29v78q52 11 101 37h83v-328z"/>
<glyph glyph-name="ordmasculine" horiz-adv-x="442" unicode="º" d="M221 326q75 0 75 112q0 113 -75 113q-74 0 -74 -113q0 -112 74 -112zM221 244q-87 0 -135.5 56t-48.5 138t48.5 138t135.5 56q88 0 136.5 -56t48.5 -138t-49 -138t-136 -56z"/>
<glyph glyph-name="guillemotright" horiz-adv-x="539" unicode="»" d="M251 53l119 193l-119 192h135l121 -192l-121 -193h-135zM28 53l120 193l-120 192h136l120 -192l-120 -193h-136z"/>
<glyph glyph-name="onequarter" horiz-adv-x="736" unicode="¼" d="M80 -37l415 680h94l-414 -680h-95zM198 298h-100v242q-28 -18 -84 -29v78q52 11 101 37h83v-328zM579 126v110h-1l-85 -110h86zM726 59h-51v-59h-100v59h-156v66l154 203h102v-198h51v-71z"/>
<glyph glyph-name="onehalf" horiz-adv-x="718" unicode="½" d="M80 -37l415 680h94l-414 -680h-95zM198 298h-100v242q-28 -18 -84 -29v78q52 11 101 37h83v-328zM694 0h-258v63q35 24 51 36t43 35t39 42.5t12 38.5q0 43 -52 43q-41 0 -81 -18v74q54 19 101 19q60 0 98 -24.5t38 -77.5q0 -33 -22 -64t-46 -49.5t-66 -46.5q25 3 54 3h89 v-74z"/>
<glyph glyph-name="threequarters" horiz-adv-x="755" unicode="¾" d="M99 -37l415 680h94l-414 -680h-95zM118 293q-54 0 -97 12v70q34 -10 78 -10q60 0 60 35q0 34 -66 34h-33v62h22q69 0 69 34q0 29 -48 29q-42 0 -77 -10v69q40 13 99 13q84 0 115 -44q13 -16 13 -42q0 -52 -62 -72v-1q71 -18 71 -79q0 -50 -43.5 -75t-100.5 -25zM598 126 v110h-1l-85 -110h86zM745 59h-51v-59h-100v59h-156v66l154 203h102v-198h51v-71z"/>
<glyph glyph-name="questiondown" horiz-adv-x="413" unicode="¿" d="M246 340q-35 0 -58.5 23t-23.5 56t23.5 56.5t58.5 23.5t58.5 -23.5t23.5 -56.5t-23.5 -56t-58.5 -23zM230 -140q-89 0 -144 38.5t-55 112.5q0 40 16.5 70t40.5 48.5t47.5 35t40 38t16.5 48.5q0 13 -5 38h120q7 -33 7 -51q0 -36 -15 -63t-36.5 -43.5t-42.5 -31t-36 -33 t-15 -42.5q0 -28 21.5 -44.5t62.5 -16.5q57 0 116 26v-107q-63 -23 -139 -23z"/>
<glyph glyph-name="Agrave" horiz-adv-x="636" unicode="À" d="M259 675l-140 143h171l83 -143h-114zM10 0l234 623h153l228 -623h-149l-40 124h-243l-42 -124h-141zM229 234h171l-52 160q-25 77 -31 102h-2q-12 -42 -32 -102z"/>
<glyph glyph-name="Aacute" horiz-adv-x="636" unicode="Á" d="M260 675l83 143h170l-139 -143h-114zM10 0l234 623h153l228 -623h-149l-40 124h-243l-42 -124h-141zM229 234h171l-52 160q-25 77 -31 102h-2q-12 -42 -32 -102z"/>
<glyph glyph-name="Acircumflex" horiz-adv-x="636" unicode="Â" d="M140 675l127 160h100l126 -160h-111l-66 68l-66 -68h-110zM10 0l234 623h153l228 -623h-149l-40 124h-243l-42 -124h-141zM229 234h171l-52 160q-25 77 -31 102h-2q-12 -42 -32 -102z"/>
<glyph glyph-name="Atilde" horiz-adv-x="636" unicode="Ã" d="M199 678l-61 52q51 79 122 79q31 0 63.5 -15t49.5 -15q29 0 61 37l60 -53q-53 -79 -123 -79q-31 0 -63 14.5t-50 14.5q-29 0 -59 -35zM10 0l234 623h153l228 -623h-149l-40 124h-243l-42 -124h-141zM229 234h171l-52 160q-25 77 -31 102h-2q-12 -42 -32 -102z"/>
<glyph glyph-name="Adieresis" horiz-adv-x="636" unicode="Ä" d="M418 676q-31 0 -52 21t-21 50q0 30 21 50.5t52 20.5t52 -20.5t21 -50.5q0 -29 -21 -50t-52 -21zM215 676q-31 0 -51.5 21t-20.5 50q0 30 20.5 50.5t51.5 20.5t52 -20.5t21 -50.5q0 -29 -21 -50t-52 -21zM10 0l234 623h153l228 -623h-149l-40 124h-243l-42 -124h-141z M229 234h171l-52 160q-25 77 -31 102h-2q-12 -42 -32 -102z"/>
<glyph glyph-name="Aring" horiz-adv-x="636" unicode="Å" d="M316 716q21 0 34 15.5t13 36.5q0 22 -13 37t-34 15t-34 -15t-13 -37q0 -21 13 -36.5t34 -15.5zM316 658q-46 0 -80 32t-34 78q0 47 34 79t80 32t80 -32t34 -79q0 -46 -34 -78t-80 -32zM10 0l234 623h153l228 -623h-149l-40 124h-243l-42 -124h-141zM229 234h171l-52 160 q-25 77 -31 102h-2q-12 -42 -32 -102z"/>
<glyph glyph-name="AE" horiz-adv-x="813" unicode="Æ" d="M242 234h140v286zM-11 0l317 623h456v-113h-243v-134h207v-104h-207v-159h243v-113h-380v133h-186l-66 -133h-141z"/>
<glyph glyph-name="Ccedilla" d="M258 -225q-43 0 -68 11v63q30 -11 53 -11q49 0 49 36q0 40 -71 40l34 88q-103 25 -158 106t-55 196q0 142 77 234.5t223 92.5q85 0 154 -28v-119q-53 32 -139 32q-83 0 -126.5 -54t-43.5 -158q0 -94 46 -145.5t128 -51.5q81 0 142 37v-122q-68 -30 -159 -30l-18 1 l-15 -42q33 -7 51.5 -29t18.5 -52q0 -45 -32.5 -70t-90.5 -25z" unicode="Ç"/>
<glyph glyph-name="Egrave" horiz-adv-x="510" unicode="È" d="M211 675l-140 143h171l83 -143h-114zM79 0v623h380v-113h-243v-134h207v-104h-207v-159h243v-113h-380z"/>
<glyph glyph-name="Eacute" horiz-adv-x="510" unicode="É" d="M79 0v623h380v-113h-243v-134h207v-104h-207v-159h243v-113h-380zM212 675l83 143h170l-139 -143h-114z"/>
<glyph glyph-name="Ecircumflex" horiz-adv-x="510" unicode="Ê" d="M79 0v623h380v-113h-243v-134h207v-104h-207v-159h243v-113h-380zM92 675l127 160h100l126 -160h-111l-66 68l-66 -68h-110z"/>
<glyph glyph-name="Edieresis" horiz-adv-x="510" unicode="Ë" d="M79 0v623h380v-113h-243v-134h207v-104h-207v-159h243v-113h-380zM370 676q-31 0 -52 21t-21 50q0 30 21 50.5t52 20.5t52 -20.5t21 -50.5q0 -29 -21 -50t-52 -21zM167 676q-31 0 -51.5 21t-20.5 50q0 30 20.5 50.5t51.5 20.5t52 -20.5t21 -50.5q0 -29 -21 -50t-52 -21z "/>
<glyph glyph-name="Igrave" horiz-adv-x="301" unicode="Ì" d="M93 675l-140 143h171l83 -143h-114zM82 0v623h137v-623h-137z"/>
<glyph glyph-name="Iacute" horiz-adv-x="301" unicode="Í" d="M94 675l83 143h170l-139 -143h-114zM82 0v623h137v-623h-137z"/>
<glyph glyph-name="Icircumflex" horiz-adv-x="301" unicode="Î" d="M-25 675l127 160h100l126 -160h-111l-66 68l-66 -68h-110zM82 0v623h137v-623h-137z"/>
<glyph glyph-name="Idieresis" horiz-adv-x="301" unicode="Ï" d="M252 676q-31 0 -52 21t-21 50q0 30 21 50.5t52 20.5t52 -20.5t21 -50.5q0 -29 -21 -50t-52 -21zM49 676q-31 0 -51.5 21t-20.5 50q0 30 20.5 50.5t51.5 20.5t52 -20.5t21 -50.5q0 -29 -21 -50t-52 -21zM82 0v623h137v-623h-137z"/>
<glyph glyph-name="Eth" horiz-adv-x="654" unicode="Ð" d="M229 113h56q52 0 88 15t54.5 43t26.5 61.5t8 78.5q0 94 -37.5 147t-134.5 53h-61v-150h87v-95h-87v-153zM92 0v266h-64v95h64v261h211q80 0 140.5 -27t94.5 -72t51 -98.5t17 -113.5q0 -61 -16.5 -114t-51 -98.5t-96 -72t-143.5 -26.5h-207z"/>
<glyph glyph-name="Ntilde" horiz-adv-x="690" unicode="Ñ" d="M230 678l-61 52q51 79 122 79q31 0 63.5 -15t49.5 -15q29 0 61 37l60 -53q-53 -79 -123 -79q-31 0 -63 14.5t-50 14.5q-29 0 -59 -35zM80 0v623h145l210 -337q32 -53 54 -101h3q-3 42 -3 95v343h122v-623h-147l-210 337q-27 44 -53 96h-2q3 -81 3 -89v-344h-122z"/>
<glyph glyph-name="Ograve" horiz-adv-x="674" unicode="Ò" d="M278 675l-140 143h171l83 -143h-114zM337 105q73 0 112 54t39 153t-39 152.5t-112 53.5t-111.5 -53.5t-38.5 -153.5q0 -99 38.5 -152.5t111.5 -53.5zM337 -8q-141 0 -218 90t-77 229q0 88 32 159.5t100.5 116t162.5 44.5q141 0 218 -90t77 -229q0 -136 -77.5 -228 t-217.5 -92z"/>
<glyph glyph-name="Oacute" horiz-adv-x="674" unicode="Ó" d="M337 105q73 0 112 54t39 153t-39 152.5t-112 53.5t-111.5 -53.5t-38.5 -153.5q0 -99 38.5 -152.5t111.5 -53.5zM337 -8q-141 0 -218 90t-77 229q0 88 32 159.5t100.5 116t162.5 44.5q141 0 218 -90t77 -229q0 -136 -77.5 -228t-217.5 -92zM279 675l83 143h170l-139 -143 h-114z"/>
<glyph glyph-name="Ocircumflex" horiz-adv-x="674" unicode="Ô" d="M337 105q73 0 112 54t39 153t-39 152.5t-112 53.5t-111.5 -53.5t-38.5 -153.5q0 -99 38.5 -152.5t111.5 -53.5zM337 -8q-141 0 -218 90t-77 229q0 88 32 159.5t100.5 116t162.5 44.5q141 0 218 -90t77 -229q0 -136 -77.5 -228t-217.5 -92zM159 675l127 160h100l126 -160 h-111l-66 68l-66 -68h-110z"/>
<glyph glyph-name="Otilde" horiz-adv-x="674" unicode="Õ" d="M218 678l-61 52q51 79 122 79q31 0 63.5 -15t49.5 -15q29 0 61 37l60 -53q-53 -79 -123 -79q-31 0 -63 14.5t-50 14.5q-29 0 -59 -35zM337 105q73 0 112 54t39 153t-39 152.5t-112 53.5t-111.5 -53.5t-38.5 -153.5q0 -99 38.5 -152.5t111.5 -53.5zM337 -8q-141 0 -218 90 t-77 229q0 88 32 159.5t100.5 116t162.5 44.5q141 0 218 -90t77 -229q0 -136 -77.5 -228t-217.5 -92z"/>
<glyph glyph-name="Odieresis" horiz-adv-x="674" unicode="Ö" d="M337 105q73 0 112 54t39 153t-39 152.5t-112 53.5t-111.5 -53.5t-38.5 -153.5q0 -99 38.5 -152.5t111.5 -53.5zM337 -8q-141 0 -218 90t-77 229q0 88 32 159.5t100.5 116t162.5 44.5q141 0 218 -90t77 -229q0 -136 -77.5 -228t-217.5 -92zM437 676q-31 0 -52 21t-21 50 q0 30 21 50.5t52 20.5t52 -20.5t21 -50.5q0 -29 -21 -50t-52 -21zM234 676q-31 0 -51.5 21t-20.5 50q0 30 20.5 50.5t51.5 20.5t52 -20.5t21 -50.5q0 -29 -21 -50t-52 -21z"/>
<glyph glyph-name="multiply" horiz-adv-x="511" unicode="×" d="M398 29l-144 144l-139 -139l-72 73l138 141l-140 141l75 75l140 -140l138 139l74 -74l-138 -139l143 -145z"/>
<glyph glyph-name="Oslash" horiz-adv-x="674" unicode="Ø" d="M337 105q73 0 112.5 54t39.5 153q0 78 -27 126l-211 -307q34 -26 86 -26zM209 186l211 308q-34 24 -83 24q-74 0 -112.5 -53.5t-38.5 -153.5q0 -78 23 -125zM119 -58l-55 38l64 92q-86 89 -86 239q0 88 32 159.5t100.5 116t162.5 44.5q86 0 154 -38l59 86l54 -38l-61 -88 q89 -87 89 -241q0 -136 -77.5 -228t-217.5 -92q-90 0 -156 39z"/>
<glyph glyph-name="Ugrave" horiz-adv-x="658" unicode="Ù" d="M273 675l-140 143h171l83 -143h-114zM333 -8q-120 0 -189 58.5t-69 179.5v393h137v-387q0 -131 121 -131t121 131v387h129v-393q0 -121 -65.5 -179.5t-184.5 -58.5z"/>
<glyph glyph-name="Uacute" horiz-adv-x="658" unicode="Ú" d="M333 -8q-120 0 -189 58.5t-69 179.5v393h137v-387q0 -131 121 -131t121 131v387h129v-393q0 -121 -65.5 -179.5t-184.5 -58.5zM274 675l83 143h170l-139 -143h-114z"/>
<glyph glyph-name="Ucircumflex" horiz-adv-x="658" unicode="Û" d="M333 -8q-120 0 -189 58.5t-69 179.5v393h137v-387q0 -131 121 -131t121 131v387h129v-393q0 -121 -65.5 -179.5t-184.5 -58.5zM155 675l127 160h100l126 -160h-111l-66 68l-66 -68h-110z"/>
<glyph glyph-name="Udieresis" horiz-adv-x="658" unicode="Ü" d="M333 -8q-120 0 -189 58.5t-69 179.5v393h137v-387q0 -131 121 -131t121 131v387h129v-393q0 -121 -65.5 -179.5t-184.5 -58.5zM432 676q-31 0 -52 21t-21 50q0 30 21 50.5t52 20.5t52 -20.5t21 -50.5q0 -29 -21 -50t-52 -21zM229 676q-31 0 -51.5 21t-20.5 50 q0 30 20.5 50.5t51.5 20.5t52 -20.5t21 -50.5q0 -29 -21 -50t-52 -21z"/>
<glyph glyph-name="Yacute" horiz-adv-x="565" unicode="Ý" d="M228 675l83 143h170l-139 -143h-114zM213 0v242l-207 381h150l135 -266l130 266h138l-209 -381v-242h-137z"/>
<glyph glyph-name="Thorn" horiz-adv-x="578" unicode="Þ" d="M215 224h74q109 0 109 105q0 104 -106 104h-77v-209zM79 0v623h136v-85h90q105 0 169 -55t64 -152q0 -100 -65.5 -156.5t-178.5 -56.5h-79v-118h-136z"/>
<glyph glyph-name="germandbls" horiz-adv-x="567" unicode="ß" d="M353 -8q-58 0 -100 15v106q43 -19 84 -19q29 0 48 15t19 39q0 10 -4 20t-8 16t-15 15.5t-15 12.5t-20 12.5t-18 11.5q-32 20 -49.5 42.5t-17.5 57.5q0 27 22.5 54t45 57t22.5 64q0 30 -17.5 49t-53.5 19t-56 -24.5t-20 -69.5v-485h-135v473q0 102 61 158.5t162 56.5 q86 0 138.5 -46.5t52.5 -112.5q0 -40 -15.5 -72t-34 -48t-34 -33t-15.5 -31q0 -6 2.5 -11t8.5 -11t9.5 -8.5t13.5 -9.5t12 -8q5 -4 26.5 -18.5t28 -20t22 -20t21 -25.5t11 -28t5.5 -36q0 -78 -51 -117.5t-136 -39.5z"/>
<glyph glyph-name="agrave" horiz-adv-x="499" unicode="à" d="M199 550l-140 143h171l83 -143h-114zM227 87q41 0 68 27v92q-8 2 -31 2q-53 0 -78 -15.5t-25 -49.5q0 -56 66 -56zM411 -8q-74 0 -98 58q-17 -25 -51 -41.5t-77 -16.5q-71 0 -113.5 36.5t-42.5 105.5q0 77 59.5 113.5t165.5 36.5q21 0 41 -2v33q0 43 -20.5 61.5 t-69.5 18.5q-63 0 -127 -25v103q70 26 150 26q101 0 151 -41t50 -130v-198q0 -38 32 -38q6 0 18 2v-87q-28 -15 -68 -15z"/>
<glyph glyph-name="aacute" horiz-adv-x="499" unicode="á" d="M190 550l83 143h170l-139 -143h-114zM227 87q41 0 68 27v92q-8 2 -31 2q-53 0 -78 -15.5t-25 -49.5q0 -56 66 -56zM411 -8q-74 0 -98 58q-17 -25 -51 -41.5t-77 -16.5q-71 0 -113.5 36.5t-42.5 105.5q0 77 59.5 113.5t165.5 36.5q21 0 41 -2v33q0 43 -20.5 61.5 t-69.5 18.5q-63 0 -127 -25v103q70 26 150 26q101 0 151 -41t50 -130v-198q0 -38 32 -38q6 0 18 2v-87q-28 -15 -68 -15z"/>
<glyph glyph-name="acircumflex" horiz-adv-x="499" unicode="â" d="M75 550l127 160h100l126 -160h-111l-66 68l-66 -68h-110zM227 87q41 0 68 27v92q-8 2 -31 2q-53 0 -78 -15.5t-25 -49.5q0 -56 66 -56zM411 -8q-74 0 -98 58q-17 -25 -51 -41.5t-77 -16.5q-71 0 -113.5 36.5t-42.5 105.5q0 77 59.5 113.5t165.5 36.5q21 0 41 -2v33 q0 43 -20.5 61.5t-69.5 18.5q-63 0 -127 -25v103q70 26 150 26q101 0 151 -41t50 -130v-198q0 -38 32 -38q6 0 18 2v-87q-28 -15 -68 -15z"/>
<glyph glyph-name="atilde" horiz-adv-x="499" unicode="ã" d="M131 553l-61 52q51 79 122 79q31 0 63.5 -15t49.5 -15q29 0 61 37l60 -53q-53 -79 -123 -79q-31 0 -63 14.5t-50 14.5q-29 0 -59 -35zM227 87q41 0 68 27v92q-8 2 -31 2q-53 0 -78 -15.5t-25 -49.5q0 -56 66 -56zM411 -8q-74 0 -98 58q-17 -25 -51 -41.5t-77 -16.5 q-71 0 -113.5 36.5t-42.5 105.5q0 77 59.5 113.5t165.5 36.5q21 0 41 -2v33q0 43 -20.5 61.5t-69.5 18.5q-63 0 -127 -25v103q70 26 150 26q101 0 151 -41t50 -130v-198q0 -38 32 -38q6 0 18 2v-87q-28 -15 -68 -15z"/>
<glyph glyph-name="adieresis" horiz-adv-x="499" unicode="ä" d="M349 551q-31 0 -52 21t-21 50q0 30 21 50.5t52 20.5t52 -20.5t21 -50.5q0 -29 -21 -50t-52 -21zM146 551q-31 0 -51.5 21t-20.5 50q0 30 20.5 50.5t51.5 20.5t52 -20.5t21 -50.5q0 -29 -21 -50t-52 -21zM227 87q41 0 68 27v92q-8 2 -31 2q-53 0 -78 -15.5t-25 -49.5 q0 -56 66 -56zM411 -8q-74 0 -98 58q-17 -25 -51 -41.5t-77 -16.5q-71 0 -113.5 36.5t-42.5 105.5q0 77 59.5 113.5t165.5 36.5q21 0 41 -2v33q0 43 -20.5 61.5t-69.5 18.5q-63 0 -127 -25v103q70 26 150 26q101 0 151 -41t50 -130v-198q0 -38 32 -38q6 0 18 2v-87 q-28 -15 -68 -15z"/>
<glyph glyph-name="aring" horiz-adv-x="499" unicode="å" d="M250 591q21 0 34 15.5t13 36.5q0 22 -13 37t-34 15t-34 -15t-13 -37q0 -21 13 -36.5t34 -15.5zM250 533q-46 0 -80 32t-34 78q0 47 34 79t80 32t80 -32t34 -79q0 -46 -34 -78t-80 -32zM227 87q41 0 68 27v92q-8 2 -31 2q-53 0 -78 -15.5t-25 -49.5q0 -56 66 -56zM411 -8 q-74 0 -98 58q-17 -25 -51 -41.5t-77 -16.5q-71 0 -113.5 36.5t-42.5 105.5q0 77 59.5 113.5t165.5 36.5q21 0 41 -2v33q0 43 -20.5 61.5t-69.5 18.5q-63 0 -127 -25v103q70 26 150 26q101 0 151 -41t50 -130v-198q0 -38 32 -38q6 0 18 2v-87q-28 -15 -68 -15z"/>
<glyph glyph-name="ae" horiz-adv-x="766" unicode="æ" d="M429 292h173v7q0 43 -20 72.5t-59 29.5q-44 0 -68 -30t-26 -79zM224 87q56 0 88 41q-17 41 -18 86q-14 2 -26 2q-54 0 -80.5 -16.5t-26.5 -53.5q0 -29 17 -44t46 -15zM189 -8q-73 0 -116.5 37t-43.5 108q0 155 229 155q9 0 21 -0.5t16 -0.5v15q0 44 -21.5 66.5 t-70.5 22.5q-67 0 -128 -27v104q66 27 152 27q109 0 150 -56q58 56 147 56q110 0 159.5 -66.5t49.5 -171.5q0 -23 -2 -49h-304q5 -120 123 -120q83 0 149 30v-102q-70 -28 -158 -28q-124 0 -189 70q-60 -70 -163 -70z"/>
<glyph glyph-name="ccedilla" horiz-adv-x="437" unicode="ç" d="M203 -225q-43 0 -68 11v63q30 -11 53 -11q48 0 48 36q0 40 -70 40l33 87q-82 18 -124.5 80t-42.5 157q0 115 63 188t180 73q63 0 122 -21v-104q-51 23 -109 23q-118 0 -118 -159q0 -70 32 -106.5t90 -36.5q68 0 114 27v-106q-57 -24 -127 -24h-8l-15 -41q33 -7 51.5 -29 t18.5 -52q0 -45 -32.5 -70t-90.5 -25z"/>
<glyph glyph-name="egrave" horiz-adv-x="506" unicode="è" d="M207 550l-140 143h171l83 -143h-114zM172 303h170v5q0 38 -20.5 65.5t-57.5 27.5q-39 0 -63.5 -25.5t-28.5 -72.5zM285 -8q-129 0 -191.5 68t-62.5 185q0 109 61.5 181.5t171.5 72.5t159.5 -64.5t49.5 -163.5q0 -25 -3 -46h-302q2 -65 30.5 -99t96.5 -34q79 0 145 30 v-102q-70 -28 -155 -28z"/>
<glyph glyph-name="eacute" horiz-adv-x="506" unicode="é" d="M172 303h170v5q0 38 -20.5 65.5t-57.5 27.5q-39 0 -63.5 -25.5t-28.5 -72.5zM285 -8q-129 0 -191.5 68t-62.5 185q0 109 61.5 181.5t171.5 72.5t159.5 -64.5t49.5 -163.5q0 -25 -3 -46h-302q2 -65 30.5 -99t96.5 -34q79 0 145 30v-102q-70 -28 -155 -28zM201 550l83 143 h170l-139 -143h-114z"/>
<glyph glyph-name="ecircumflex" horiz-adv-x="506" unicode="ê" d="M172 303h170v5q0 38 -20.5 65.5t-57.5 27.5q-39 0 -63.5 -25.5t-28.5 -72.5zM285 -8q-129 0 -191.5 68t-62.5 185q0 109 61.5 181.5t171.5 72.5t159.5 -64.5t49.5 -163.5q0 -25 -3 -46h-302q2 -65 30.5 -99t96.5 -34q79 0 145 30v-102q-70 -28 -155 -28zM88 550l127 160 h100l126 -160h-111l-66 68l-66 -68h-110z"/>
<glyph glyph-name="edieresis" horiz-adv-x="506" unicode="ë" d="M172 303h170v5q0 38 -20.5 65.5t-57.5 27.5q-39 0 -63.5 -25.5t-28.5 -72.5zM285 -8q-129 0 -191.5 68t-62.5 185q0 109 61.5 181.5t171.5 72.5t159.5 -64.5t49.5 -163.5q0 -25 -3 -46h-302q2 -65 30.5 -99t96.5 -34q79 0 145 30v-102q-70 -28 -155 -28zM362 551 q-31 0 -52 21t-21 50q0 30 21 50.5t52 20.5t52 -20.5t21 -50.5q0 -29 -21 -50t-52 -21zM159 551q-31 0 -51.5 21t-20.5 50q0 30 20.5 50.5t51.5 20.5t52 -20.5t21 -50.5q0 -29 -21 -50t-52 -21z"/>
<glyph glyph-name="igrave" horiz-adv-x="275" unicode="ì" d="M80 550l-140 143h171l83 -143h-114zM71 0v491h133v-491h-133z"/>
<glyph glyph-name="iacute" horiz-adv-x="275" unicode="í" d="M71 0v491h133v-491h-133zM81 550l83 143h170l-139 -143h-114z"/>
<glyph glyph-name="icircumflex" horiz-adv-x="275" unicode="î" d="M71 0v491h133v-491h-133zM-39 550l127 160h100l126 -160h-111l-66 68l-66 -68h-110z"/>
<glyph glyph-name="idieresis" horiz-adv-x="275" unicode="ï" d="M71 0v491h133v-491h-133zM240 551q-31 0 -52 21t-21 50q0 30 21 50.5t52 20.5t52 -20.5t21 -50.5q0 -29 -21 -50t-52 -21zM37 551q-31 0 -51.5 21t-20.5 50q0 30 20.5 50.5t51.5 20.5t52 -20.5t21 -50.5q0 -29 -21 -50t-52 -21z"/>
<glyph glyph-name="eth" horiz-adv-x="553" unicode="ð" d="M271 93q58 0 83.5 47.5t25.5 140.5q0 29 -1 36q-15 30 -42 50t-62 20q-101 0 -101 -146q0 -148 97 -148zM268 -8q-109 0 -170 65.5t-61 183.5q0 111 61 178.5t160 67.5q35 0 64.5 -13.5t44.5 -28.5q-8 42 -35 78t-68 55l-73 -63l-48 53l41 34q-38 10 -86 10v105 q108 0 186 -27l76 66l49 -52l-53 -46q162 -98 162 -354q0 -151 -62.5 -231.5t-187.5 -80.5z"/>
<glyph glyph-name="ntilde" d="M157 553l-61 52q51 79 122 79q31 0 63.5 -15t49.5 -15q29 0 61 37l60 -53q-53 -79 -123 -79q-31 0 -63 14.5t-50 14.5q-29 0 -59 -35zM62 0v491h131v-39q61 47 135 47q161 0 161 -173v-326h-133v306q0 45 -17.5 66.5t-59.5 21.5t-83 -31v-363h-134z" unicode="ñ"/>
<glyph glyph-name="ograve" horiz-adv-x="536" unicode="ò" d="M209 550l-140 143h171l83 -143h-114zM269 92q98 0 98 153q0 155 -99 155q-98 0 -98 -155q0 -153 99 -153zM268 -8q-116 0 -176.5 70.5t-60.5 182.5q0 107 61.5 180.5t176.5 73.5q116 0 176 -70.5t60 -183.5q0 -106 -61.5 -179.5t-175.5 -73.5z"/>
<glyph glyph-name="oacute" horiz-adv-x="536" unicode="ó" d="M269 92q98 0 98 153q0 155 -99 155q-98 0 -98 -155q0 -153 99 -153zM268 -8q-116 0 -176.5 70.5t-60.5 182.5q0 107 61.5 180.5t176.5 73.5q116 0 176 -70.5t60 -183.5q0 -106 -61.5 -179.5t-175.5 -73.5zM210 550l83 143h170l-139 -143h-114z"/>
<glyph glyph-name="ocircumflex" horiz-adv-x="536" unicode="ô" d="M269 92q98 0 98 153q0 155 -99 155q-98 0 -98 -155q0 -153 99 -153zM268 -8q-116 0 -176.5 70.5t-60.5 182.5q0 107 61.5 180.5t176.5 73.5q116 0 176 -70.5t60 -183.5q0 -106 -61.5 -179.5t-175.5 -73.5zM91 550l127 160h100l126 -160h-111l-66 68l-66 -68h-110z"/>
<glyph glyph-name="otilde" horiz-adv-x="536" unicode="õ" d="M150 553l-61 52q51 79 122 79q31 0 63.5 -15t49.5 -15q29 0 61 37l60 -53q-53 -79 -123 -79q-31 0 -63 14.5t-50 14.5q-29 0 -59 -35zM269 92q98 0 98 153q0 155 -99 155q-98 0 -98 -155q0 -153 99 -153zM268 -8q-116 0 -176.5 70.5t-60.5 182.5q0 107 61.5 180.5 t176.5 73.5q116 0 176 -70.5t60 -183.5q0 -106 -61.5 -179.5t-175.5 -73.5z"/>
<glyph glyph-name="odieresis" horiz-adv-x="536" unicode="ö" d="M269 92q98 0 98 153q0 155 -99 155q-98 0 -98 -155q0 -153 99 -153zM268 -8q-116 0 -176.5 70.5t-60.5 182.5q0 107 61.5 180.5t176.5 73.5q116 0 176 -70.5t60 -183.5q0 -106 -61.5 -179.5t-175.5 -73.5zM370 551q-31 0 -52 21t-21 50q0 30 21 50.5t52 20.5t52 -20.5 t21 -50.5q0 -29 -21 -50t-52 -21zM167 551q-31 0 -51.5 21t-20.5 50q0 30 20.5 50.5t51.5 20.5t52 -20.5t21 -50.5q0 -29 -21 -50t-52 -21z"/>
<glyph glyph-name="divide" horiz-adv-x="564" unicode="÷" d="M43 200v102h478v-102h-478zM282 355q-30 0 -51.5 21t-21.5 51t21.5 51t51.5 21t51.5 -21t21.5 -51t-21.5 -51t-51.5 -21zM282 3q-30 0 -51.5 21t-21.5 51t21.5 51.5t51.5 21.5t51.5 -21.5t21.5 -51.5t-21.5 -51t-51.5 -21z"/>
<glyph glyph-name="oslash" horiz-adv-x="536" unicode="ø" d="M175 168l152 217q-23 17 -59 17q-103 0 -103 -157q0 -49 10 -77zM269 90q103 0 103 155q0 51 -11 83l-152 -221q23 -17 60 -17zM89 -63l-53 38l59 84q-64 68 -64 186q0 107 61.5 180.5t176.5 73.5q66 0 117 -27l53 75l54 -37l-54 -77q66 -69 66 -188q0 -106 -61.5 -179.5 t-175.5 -73.5q-69 0 -120 28z"/>
<glyph glyph-name="ugrave" d="M215 550l-140 143h171l83 -143h-114zM221 -8q-162 0 -162 173v326h134v-306q0 -45 18 -66.5t60 -21.5q40 0 83 31v363h133v-491h-131v39q-59 -47 -135 -47z" unicode="ù"/>
<glyph glyph-name="uacute" d="M221 -8q-162 0 -162 173v326h134v-306q0 -45 18 -66.5t60 -21.5q40 0 83 31v363h133v-491h-131v39q-59 -47 -135 -47zM216 550l83 143h170l-139 -143h-114z" unicode="ú"/>
<glyph glyph-name="ucircumflex" d="M221 -8q-162 0 -162 173v326h134v-306q0 -45 18 -66.5t60 -21.5q40 0 83 31v363h133v-491h-131v39q-59 -47 -135 -47zM96 550l127 160h100l126 -160h-111l-66 68l-66 -68h-110z" unicode="û"/>
<glyph glyph-name="udieresis" d="M221 -8q-162 0 -162 173v326h134v-306q0 -45 18 -66.5t60 -21.5q40 0 83 31v363h133v-491h-131v39q-59 -47 -135 -47zM375 551q-31 0 -52 21t-21 50q0 30 21 50.5t52 20.5t52 -20.5t21 -50.5q0 -29 -21 -50t-52 -21zM172 551q-31 0 -51.5 21t-20.5 50q0 30 20.5 50.5 t51.5 20.5t52 -20.5t21 -50.5q0 -29 -21 -50t-52 -21z" unicode="ü"/>
<glyph glyph-name="yacute" horiz-adv-x="499" unicode="ý" d="M192 550l83 143h170l-139 -143h-114zM113 -188q-41 0 -75 9v100q31 -9 59 -9q67 0 84 65l5 20l-173 494h140l104 -337h2l93 337h137l-184 -541q-24 -73 -68 -105.5t-124 -32.5z"/>
<glyph glyph-name="thorn" horiz-adv-x="543" unicode="þ" d="M267 95q102 0 102 150t-102 150q-41 0 -73 -28v-245q31 -27 73 -27zM61 -180v860h130v-231q42 50 118 50q97 0 149 -69.5t52 -177.5q0 -116 -56 -188t-156 -72q-62 0 -103 36v-208h-134z"/>
<glyph glyph-name="OE" horiz-adv-x="865" unicode="Œ" d="M360 101q52 0 74 13v394q-20 12 -71 12q-166 0 -166 -209q0 -210 163 -210zM348 -8q-95 0 -163.5 45t-100.5 116t-32 158q0 86 31.5 156.5t100.5 116.5t166 46q43 0 87 -7h377v-113h-243v-134h207v-104h-207v-159h243v-113h-371q-51 -8 -95 -8z"/>
<glyph glyph-name="oe" horiz-adv-x="842" unicode="œ" d="M507 303h171v5q0 38 -20.5 65.5t-57.5 27.5q-39 0 -63.5 -25.5t-29.5 -72.5zM269 92q98 0 98 153q0 155 -99 155q-98 0 -98 -155q0 -153 99 -153zM268 -8q-116 0 -176.5 70.5t-60.5 182.5q0 107 61.5 180.5t176.5 73.5q116 0 167 -82q54 82 164 82t159.5 -64.5 t49.5 -163.5q0 -27 -3 -46h-302q1 -65 30 -99t96 -34q80 0 146 30v-102q-70 -28 -155 -28q-133 0 -187 82q-54 -82 -166 -82z"/>
<glyph glyph-name="Scaron" horiz-adv-x="498" unicode="Š" d="M237 -8q-108 0 -188 35v119q90 -42 163 -42q104 0 104 70q0 16 -4.5 27t-19.5 21t-25.5 15t-42 17.5t-49.5 20.5q-57 26 -91 66.5t-34 111.5q0 88 59 133t158 45q81 0 156 -28v-116q-70 33 -146 33q-91 0 -91 -63q0 -29 21 -43.5t77 -35.5q12 -6 40.5 -19t42 -20 t34.5 -23t31.5 -32.5t18.5 -43.5t8 -61q0 -88 -62 -137.5t-160 -49.5zM197 674l-125 162h111l65 -69l65 69h112l-128 -162h-100z"/>
<glyph glyph-name="scaron" horiz-adv-x="416" unicode="š" d="M197 -8q-99 0 -160 28v99q68 -29 140 -29q81 0 81 51q0 8 -2.5 14t-8 11t-11.5 9t-17 8t-19.5 6.5t-24 7.5t-25.5 8q-115 38 -115 145q0 75 50.5 112t139.5 37q75 0 127 -20v-101q-61 23 -120 23q-71 0 -71 -42q0 -21 17 -32t69 -26q63 -18 101 -52t38 -101 q0 -74 -51.5 -115t-137.5 -41zM155 549l-125 162h111l65 -69l65 69h112l-128 -162h-100z"/>
<glyph glyph-name="Ydieresis" horiz-adv-x="565" unicode="Ÿ" d="M386 676q-31 0 -52 21t-21 50q0 30 21 50.5t52 20.5t52 -20.5t21 -50.5q0 -29 -21 -50t-52 -21zM183 676q-31 0 -51.5 21t-20.5 50q0 30 20.5 50.5t51.5 20.5t52 -20.5t21 -50.5q0 -29 -21 -50t-52 -21zM213 0v242l-207 381h150l135 -266l130 266h138l-209 -381v-242 h-137z"/>
<glyph glyph-name="circumflex" horiz-adv-x="500" unicode="ˆ" d="M74 550l127 160h100l126 -160h-111l-66 68l-66 -68h-110z"/>
<glyph glyph-name="tilde" horiz-adv-x="500" unicode="˜" d="M133 553l-61 52q51 79 122 79q31 0 63.5 -15t49.5 -15q29 0 61 37l60 -53q-53 -79 -123 -79q-31 0 -63 14.5t-50 14.5q-29 0 -59 -35z"/>
<glyph glyph-name="uni0394" horiz-adv-x="736" unicode="Δ" d="M204 110h320l-159 409zM23 0l286 680h120l284 -680h-690z"/>
<glyph glyph-name="uni03BC" horiz-adv-x="546" unicode="μ" d="M57 -180v671h134v-312q0 -82 77 -82q40 0 83 31v363h134v-491h-131v39q-49 -45 -114 -45q-32 0 -52 13l-2 -1q5 -25 5 -66v-120h-134z"/>
<glyph glyph-name="pi" horiz-adv-x="682" unicode="π" d="M547 -8q-78 0 -116.5 35.5t-38.5 113.5v239h-127v-380h-132v380h-97v111h600v-111h-112v-220q0 -62 55 -62q30 0 65 11v-102q-51 -15 -97 -15z"/>
<glyph glyph-name="endash" horiz-adv-x="550" unicode="–" d="M48 217v103h454v-103h-454z"/>
<glyph glyph-name="emdash" horiz-adv-x="870" unicode="—" d="M48 217v103h774v-103h-774z"/>
<glyph glyph-name="quoteleft" horiz-adv-x="265" unicode="‘" d="M55 414q-7 31 -7 67q0 56 36 113.5t88 93.5l60 -51q-33 -38 -45 -66.5t-12 -74.5q0 -43 13 -82h-133z"/>
<glyph glyph-name="quotesinglbase" horiz-adv-x="266" unicode="‚" d="M93 -147l-60 50q33 38 45 67t12 75q0 43 -13 82h133q7 -31 7 -66q0 -57 -36 -114.5t-88 -93.5z"/>
<glyph glyph-name="quotedblleft" horiz-adv-x="471" unicode="“" d="M261 414q-7 31 -7 67q0 56 35.5 113.5t87.5 93.5l61 -51q-33 -37 -45 -65.5t-12 -75.5q0 -43 13 -82h-133zM55 414q-7 31 -7 67q0 56 36 113.5t88 93.5l60 -51q-33 -38 -45 -66.5t-12 -74.5q0 -43 13 -82h-133z"/>
<glyph glyph-name="quotedblright" horiz-adv-x="471" unicode="”" d="M299 406l-60 50q33 37 45 66t12 76q0 43 -13 82h133q7 -39 7 -67q0 -56 -36 -114t-88 -93zM93 406l-60 50q33 37 45 66t12 76q0 43 -13 82h133q7 -31 7 -67q0 -56 -36 -114t-88 -93z"/>
<glyph glyph-name="dagger" horiz-adv-x="546" unicode="†" d="M206 -180v540h-166v110h167v204h132v-204h168v-110h-167v-540h-134z"/>
<glyph glyph-name="daggerdbl" horiz-adv-x="546" unicode="‡" d="M207 -180v212h-167v110h166v218h-166v110h167v204h132v-204h168v-110h-167v-218h167v-110h-168v-212h-132z"/>
<glyph glyph-name="ellipsis" horiz-adv-x="754" unicode="…" d="M615 -8q-35 0 -58.5 23.5t-23.5 57.5q0 33 23 56t59 23t59.5 -23t23.5 -56t-24 -57t-59 -24zM376 -8q-36 0 -59.5 24t-23.5 57t23.5 56t59.5 23t59.5 -23t23.5 -56t-23.5 -57t-59.5 -24zM137 -8q-35 0 -59 24t-24 57t23.5 56t59.5 23t59.5 -23t23.5 -56t-24 -57t-59 -24z "/>
<glyph glyph-name="perthousand" horiz-adv-x="1301" unicode="‰" d="M188 -37l417 680h94l-417 -680h-94zM1091 73q32 0 49.5 26.5t17.5 64.5q0 39 -17.5 65.5t-49.5 26.5q-33 0 -51 -26.5t-18 -65.5q0 -38 18 -64.5t51 -26.5zM1091 -8q-82 0 -131 50t-49 122t49 122t131 50t130 -50t48 -121q0 -72 -48.5 -122.5t-129.5 -50.5zM684 73 q32 0 49.5 26.5t17.5 64.5q0 39 -17.5 65.5t-49.5 26.5q-33 0 -51 -26.5t-18 -65.5q0 -38 18 -64.5t51 -26.5zM684 -8q-82 0 -131 50t-49 122t49 122t131 50t130 -50t48 -121q0 -72 -48.5 -122.5t-129.5 -50.5zM213 367q32 0 49.5 26.5t17.5 65.5q0 38 -17.5 64.5 t-49.5 26.5q-33 0 -51 -27t-18 -65t18 -64.5t51 -26.5zM213 286q-82 0 -131 50.5t-49 122.5t49 122t131 50t130 -50t48 -121q0 -73 -48 -123.5t-130 -50.5z"/>
<glyph glyph-name="guilsinglleft" horiz-adv-x="320" unicode="‹" d="M152 53l-120 192l120 193h140l-119 -193l119 -192h-140z"/>
<glyph glyph-name="guilsinglright" horiz-adv-x="320" unicode="›" d="M28 53l120 193l-120 192h140l120 -192l-120 -193h-140z"/>
<glyph glyph-name="fraction" horiz-adv-x="159" unicode="⁄" d="M-183 -37l415 680h94l-414 -680h-95z"/>
<glyph glyph-name="Euro" horiz-adv-x="583" unicode="€" d="M394 -8q-112 0 -185 56t-98 151h-73v78h60q-1 11 -1 58h-59v78h72q23 98 94 158t184 60q77 0 138 -23v-119q-58 28 -121 28q-112 0 -148 -104h141v-78h-157q-1 -16 -1 -28q0 -16 1 -30h156v-78h-135q37 -94 147 -94q78 0 129 30v-120q-52 -23 -144 -23z"/>
<glyph glyph-name="trademark" horiz-adv-x="738" unicode="™" d="M119 330v225h-86v68h253v-68h-85v-225h-82zM320 330l39 293h87l46 -143q11 -31 16 -60h2l6 23q6 23 11 37l46 143h90l38 -293h-85l-12 128q-4 50 -4 58h-2q-5 -26 -18 -66l-40 -120h-68l-37 118q-15 46 -19 68h-2q0 -24 -4 -59l-15 -127h-75z"/>
<glyph glyph-name="partialdiff" d="M258 95q46 0 77 42.5t31 121.5v18q-47 33 -99 33q-46 0 -72 -27t-26 -78q0 -52 22.5 -81t66.5 -29zM251 -8q-103 0 -161 58t-58 147q0 98 56 154t151 56q34 0 70.5 -11t55.5 -26q-3 111 -42.5 163.5t-124.5 52.5q-38 0 -80 -13v105q65 12 104 12q144 0 214.5 -94.5 t70.5 -261.5t-66.5 -254.5t-189.5 -87.5z" unicode="∂"/>
<glyph glyph-name="product" horiz-adv-x="885" unicode="∏" d="M171 -174v808h-109v116h748v-116h-109v-808h-132v808h-266v-808h-132z"/>
<glyph glyph-name="summation" horiz-adv-x="658" unicode="∑" d="M69 -134v89l257 353l-257 353v89h531v-112h-367l234 -331l-234 -329h367v-112h-531z"/>
<glyph glyph-name="minus" horiz-adv-x="539" unicode="−" d="M47 200v102h446v-102h-446z"/>
<glyph glyph-name="radical" horiz-adv-x="588" unicode="√" d="M231 0l-128 319h-78v96h183l85 -247h2l156 512h134l-230 -680h-124z"/>
<glyph glyph-name="infinity" horiz-adv-x="911" unicode="∞" d="M667 188q33 0 56.5 20t23.5 50q0 31 -24.5 50t-59.5 19q-45 0 -132 -68q48 -37 78 -54t58 -17zM248 188q47 0 132 68q-46 37 -75.5 54t-59.5 17q-34 0 -58 -19t-24 -49q0 -32 25 -51.5t60 -19.5zM233 79q-83 0 -137 49t-54 126q0 78 56.5 130t137.5 52q93 0 221 -107 q133 107 223 107q83 0 134.5 -48.5t51.5 -127.5q0 -78 -56.5 -129.5t-136.5 -51.5q-51 0 -102.5 26t-118.5 81q-125 -107 -219 -107z"/>
<glyph glyph-name="approxequal" horiz-adv-x="558" unicode="≈" d="M105 280l-57 79q60 71 141 71q42 0 93 -15t86 -15q48 0 85 37l57 -82q-67 -69 -144 -69q-41 0 -92.5 15.5t-85.5 15.5q-44 0 -83 -37zM105 85l-57 78q61 72 141 72q42 0 93 -15.5t86 -15.5q48 0 85 37l57 -82q-66 -68 -144 -68q-41 0 -92.5 15.5t-85.5 15.5 q-44 0 -83 -37z"/>
<glyph glyph-name="notequal" horiz-adv-x="665" unicode="≠" d="M220 -35l-87 48l68 113h-140v98h200l40 66h-240v98h300l84 138l88 -49l-57 -89h128v-98h-188l-40 -66h228v-98h-288z"/>
<glyph glyph-name="lessequal" horiz-adv-x="580" unicode="≤" d="M62 -148v103h453v-103h-453zM515 7l-453 201v92l453 202v-123l-298 -125l298 -124v-123z"/>
<glyph glyph-name="greaterequal" horiz-adv-x="580" unicode="≥" d="M64 -148v103h452v-103h-452zM64 7v123l298 124l-298 125v123l452 -202v-92z"/>
<glyph glyph-name="dotmath" horiz-adv-x="561" unicode="⋅" d="M280 205q-37 0 -62 25t-25 60q0 36 25 60.5t62 24.5q38 0 63 -24.5t25 -60.5q0 -35 -25 -60t-63 -25z"/>
<glyph glyph-name="lozenge" horiz-adv-x="657" unicode="◊" d="M329 122l136 184l-136 187l-137 -185zM273 -4l-233 309l235 317h106l236 -311l-235 -315h-109z"/>
</font>
</defs>
</svg>
